<svg version="1.1" xmlns="http://www.w3.org/2000/svg" xmlns:xlink="http://www.w3.org/1999/xlink" width="222.48511" height="260.18103" viewBox="0,0,222.48511,260.18103"><g transform="translate(44.17558,14.62503)"><g data-paper-data="{&quot;isPaintingLayer&quot;:true}" fill="none" fill-rule="nonzero" stroke="none" stroke-width="2.5" stroke-linecap="none" stroke-linejoin="miter" stroke-miterlimit="10" stroke-dasharray="" stroke-dashoffset="0" font-family="none" font-weight="none" font-size="none" text-anchor="none" style="mix-blend-mode: normal"><path d="M22.04546,189.4386l-1.75851,26.33898l2.93086,15.46893l12.89574,8.36158l-12.30957,-0.83616l-7.62021,-3.34463l2.36302,5.81915l-9.37873,0.83616l-3.51701,-7.52542l-5.8617,4.18079l-25.79148,4.18079l17.5851,-8.36158l4.68936,-8.36158l2.9125,-12.09034l-1.17234,-22.57627l-41.59972,-22.19215l43.37658,17.55932l-1.17234,-22.57627l11.7234,19.23164l52.7553,-6.68927z" data-paper-data="{&quot;origPos&quot;:null}" fill="#ba7d33" stroke="#7b4c23" stroke-linecap="round"/><path d="M41.04546,189.4386l-1.75851,26.33898l2.93086,15.46893l12.89574,8.36158l-12.30957,-0.83616l-7.62021,-3.34463l2.36302,5.81915l-9.37873,0.83616l-3.51701,-7.52542l-5.8617,4.18079l-25.79148,4.18079l17.5851,-8.36158l4.68936,-8.36158l2.9125,-12.09034l-1.17234,-22.57627l-41.59972,-22.19215l43.37658,17.55932l-1.17234,-22.57627l11.7234,19.23164l52.7553,-6.68927z" data-paper-data="{&quot;origPos&quot;:null}" fill="#ba7d33" stroke="#7b4c23" stroke-linecap="round"/><path d="M127.54465,51.33119c0,12.93033 -15.48379,23.41243 -34.58404,23.41243c-19.10023,0 -34.58404,-10.4821 -34.58404,-23.41243c0,-12.93033 15.48379,-23.41243 34.58404,-23.41243c19.10023,0 34.58404,10.4821 34.58404,23.41243z" data-paper-data="{&quot;origPos&quot;:null}" fill="#6bba32" stroke="#63ad2f" stroke-linecap="butt"/><path d="M127.54465,119.89616c0,12.93033 -15.48379,23.41243 -34.58404,23.41243c-19.10023,0 -34.58404,-10.4821 -34.58404,-23.41243c0,-12.93033 15.48379,-23.41243 34.58404,-23.41243c19.10023,0 34.58404,10.4821 34.58404,23.41243z" data-paper-data="{&quot;origPos&quot;:null}" fill="#6bba32" stroke="#63ad2f" stroke-linecap="butt"/><path d="M143.95741,61.36509c0,12.93033 -15.48379,23.41243 -34.58404,23.41243c-19.10023,0 -34.58404,-10.4821 -34.58404,-23.41243c0,-12.93033 15.48379,-23.41243 34.58404,-23.41243c19.10023,0 34.58404,10.4821 34.58404,23.41243z" data-paper-data="{&quot;origPos&quot;:null}" fill="#6bba32" stroke="#63ad2f" stroke-linecap="butt"/><path d="M93.54679,80.59673c0,12.93033 -15.74623,23.41243 -35.17021,23.41243c-19.42396,0 -35.17021,-10.4821 -35.17021,-23.41243c0,-12.93033 15.74623,-23.41243 35.17021,-23.41243c19.42396,0 35.17021,10.4821 35.17021,23.41243z" data-paper-data="{&quot;origPos&quot;:null}" fill="#6bba32" stroke="#63ad2f" stroke-linecap="butt"/><path d="M165.05953,86.44983c0,12.93033 -15.48379,23.41243 -34.58404,23.41243c-19.10023,0 -34.58404,-10.4821 -34.58404,-23.41243c0,-12.93033 15.48379,-23.41243 34.58404,-23.41243c19.10023,0 34.58404,10.4821 34.58404,23.41243z" data-paper-data="{&quot;origPos&quot;:null}" fill="#6bba32" stroke="#63ad2f" stroke-linecap="butt"/><path d="M159.19783,112.37074c0,12.93033 -15.48379,23.41243 -34.58404,23.41243c-19.10023,0 -34.58404,-10.4821 -34.58404,-23.41243c0,-12.93033 15.48379,-23.41243 34.58404,-23.41243c19.10023,0 34.58404,10.4821 34.58404,23.41243z" data-paper-data="{&quot;origPos&quot;:null}" fill="#6bba32" stroke="#63ad2f" stroke-linecap="butt"/><path d="M119.33827,98.99221c0,12.93033 -15.48379,23.41243 -34.58404,23.41243c-19.10023,0 -34.58404,-10.4821 -34.58404,-23.41243c0,-12.93033 15.48379,-23.41243 34.58404,-23.41243c19.10023,0 34.58404,10.4821 34.58404,23.41243z" data-paper-data="{&quot;origPos&quot;:null}" fill="#6bba32" stroke="#63ad2f" stroke-linecap="butt"/><path d="M84.16806,108.18995c0,12.93033 -15.48379,23.41243 -34.58404,23.41243c-19.10023,0 -34.58404,-10.4821 -34.58404,-23.41243c0,-12.93033 15.48379,-23.41243 34.58404,-23.41243c19.10023,0 34.58404,10.4821 34.58404,23.41243z" data-paper-data="{&quot;origPos&quot;:null}" fill="#6bba32" stroke="#63ad2f" stroke-linecap="butt"/><path d="M97.04546,122.4386l-1.75851,26.33898l2.93086,15.46893l12.89574,8.36158l-12.30957,-0.83616l-7.62021,-3.34463l2.36302,5.81915l-9.37873,0.83616l-3.51701,-7.52542l-5.8617,4.18079l-25.79148,4.18079l17.5851,-8.36158l4.68936,-8.36158l2.9125,-12.09034l-1.17234,-22.57627l-41.59972,-22.19215l43.37658,17.55932l-1.17234,-22.57627l11.7234,19.23164l52.7553,-6.68927z" data-paper-data="{&quot;origPos&quot;:null}" fill="#ba7d33" stroke="#7b4c23" stroke-linecap="round"/><path d="M107.61487,63.0374c0,12.93033 -15.48379,23.41243 -34.58404,23.41243c-19.10023,0 -34.58404,-10.4821 -34.58404,-23.41243c0,-12.93033 15.48379,-23.41243 34.58404,-23.41243c19.10023,0 34.58404,10.4821 34.58404,23.41243z" data-paper-data="{&quot;origPos&quot;:null}" fill="#6bba32" stroke="#63ad2f" stroke-linecap="butt"/><path d="M70.54465,38.33119c0,12.93033 -15.48379,23.41243 -34.58404,23.41243c-19.10023,0 -34.58404,-10.4821 -34.58404,-23.41243c0,-12.93033 15.48379,-23.41243 34.58404,-23.41243c19.10023,0 34.58404,10.4821 34.58404,23.41243z" data-paper-data="{&quot;origPos&quot;:null}" fill="#6bba32" stroke="#63ad2f" stroke-linecap="butt"/><path d="M70.54465,106.89616c0,12.93033 -15.48379,23.41243 -34.58404,23.41243c-19.10023,0 -34.58404,-10.4821 -34.58404,-23.41243c0,-12.93033 15.48379,-23.41243 34.58404,-23.41243c19.10023,0 34.58404,10.4821 34.58404,23.41243z" data-paper-data="{&quot;origPos&quot;:null}" fill="#6bba32" stroke="#63ad2f" stroke-linecap="butt"/><path d="M86.95741,48.36509c0,12.93033 -15.48379,23.41243 -34.58404,23.41243c-19.10023,0 -34.58404,-10.4821 -34.58404,-23.41243c0,-12.93033 15.48379,-23.41243 34.58404,-23.41243c19.10023,0 34.58404,10.4821 34.58404,23.41243z" data-paper-data="{&quot;origPos&quot;:null}" fill="#6bba32" stroke="#63ad2f" stroke-linecap="butt"/><path d="M36.54679,67.59673c0,12.93033 -15.74623,23.41243 -35.17021,23.41243c-19.42396,0 -35.17021,-10.4821 -35.17021,-23.41243c0,-12.93033 15.74623,-23.41243 35.17021,-23.41243c19.42396,0 35.17021,10.4821 35.17021,23.41243z" data-paper-data="{&quot;origPos&quot;:null}" fill="#6bba32" stroke="#63ad2f" stroke-linecap="butt"/><path d="M108.05953,73.44983c0,12.93033 -15.48379,23.41243 -34.58404,23.41243c-19.10023,0 -34.58404,-10.4821 -34.58404,-23.41243c0,-12.93033 15.48379,-23.41243 34.58404,-23.41243c19.10023,0 34.58404,10.4821 34.58404,23.41243z" data-paper-data="{&quot;origPos&quot;:null}" fill="#6bba32" stroke="#63ad2f" stroke-linecap="butt"/><path d="M102.19783,99.37074c0,12.93033 -15.48379,23.41243 -34.58404,23.41243c-19.10023,0 -34.58404,-10.4821 -34.58404,-23.41243c0,-12.93033 15.48379,-23.41243 34.58404,-23.41243c19.10023,0 34.58404,10.4821 34.58404,23.41243z" data-paper-data="{&quot;origPos&quot;:null}" fill="#6bba32" stroke="#63ad2f" stroke-linecap="butt"/><path d="M62.33827,85.99221c0,12.93033 -15.48379,23.41243 -34.58404,23.41243c-19.10023,0 -34.58404,-10.4821 -34.58404,-23.41243c0,-12.93033 15.48379,-23.41243 34.58404,-23.41243c19.10023,0 34.58404,10.4821 34.58404,23.41243z" data-paper-data="{&quot;origPos&quot;:null}" fill="#6bba32" stroke="#63ad2f" stroke-linecap="butt"/><path d="M27.16806,95.18995c0,12.93033 -15.48379,23.41243 -34.58404,23.41243c-19.10023,0 -34.58404,-10.4821 -34.58404,-23.41243c0,-12.93033 15.48379,-23.41243 34.58404,-23.41243c19.10023,0 34.58404,10.4821 34.58404,23.41243z" data-paper-data="{&quot;origPos&quot;:null}" fill="#6bba32" stroke="#63ad2f" stroke-linecap="butt"/><path d="M40.04546,109.4386l-1.75851,26.33898l2.93086,15.46893l12.89574,8.36158l-12.30957,-0.83616l-7.62021,-3.34463l2.36302,5.81915l-9.37873,0.83616l-3.51701,-7.52542l-5.8617,4.18079l-25.79148,4.18079l17.5851,-8.36158l4.68936,-8.36158l2.9125,-12.09034l-1.17234,-22.57627l-41.59972,-22.19215l43.37658,17.55932l-1.17234,-22.57627l11.7234,19.23164l52.7553,-6.68927z" data-paper-data="{&quot;origPos&quot;:null}" fill="#ba7d33" stroke="#7b4c23" stroke-linecap="round"/><path d="M50.61487,50.0374c0,12.93033 -15.48379,23.41243 -34.58404,23.41243c-19.10023,0 -34.58404,-10.4821 -34.58404,-23.41243c0,-12.93033 15.48379,-23.41243 34.58404,-23.41243c19.10023,0 34.58404,10.4821 34.58404,23.41243z" data-paper-data="{&quot;origPos&quot;:null}" fill="#6bba32" stroke="#63ad2f" stroke-linecap="butt"/><path d="M139.54465,111.33119c0,12.93033 -15.48379,23.41243 -34.58404,23.41243c-19.10023,0 -34.58404,-10.4821 -34.58404,-23.41243c0,-12.93033 15.48379,-23.41243 34.58404,-23.41243c19.10023,0 34.58404,10.4821 34.58404,23.41243z" data-paper-data="{&quot;origPos&quot;:null}" fill="#6bba32" stroke="#63ad2f" stroke-linecap="butt"/><path d="M139.54465,179.89616c0,12.93033 -15.48379,23.41243 -34.58404,23.41243c-19.10023,0 -34.58404,-10.4821 -34.58404,-23.41243c0,-12.93033 15.48379,-23.41243 34.58404,-23.41243c19.10023,0 34.58404,10.4821 34.58404,23.41243z" data-paper-data="{&quot;origPos&quot;:null}" fill="#6bba32" stroke="#63ad2f" stroke-linecap="butt"/><path d="M155.95741,121.36509c0,12.93033 -15.48379,23.41243 -34.58404,23.41243c-19.10023,0 -34.58404,-10.4821 -34.58404,-23.41243c0,-12.93033 15.48379,-23.41243 34.58404,-23.41243c19.10023,0 34.58404,10.4821 34.58404,23.41243z" data-paper-data="{&quot;origPos&quot;:null}" fill="#6bba32" stroke="#63ad2f" stroke-linecap="butt"/><path d="M105.54679,140.59673c0,12.93033 -15.74623,23.41243 -35.17021,23.41243c-19.42396,0 -35.17021,-10.4821 -35.17021,-23.41243c0,-12.93033 15.74623,-23.41243 35.17021,-23.41243c19.42396,0 35.17021,10.4821 35.17021,23.41243z" data-paper-data="{&quot;origPos&quot;:null}" fill="#6bba32" stroke="#63ad2f" stroke-linecap="butt"/><path d="M177.05953,146.44983c0,12.93033 -15.48379,23.41243 -34.58404,23.41243c-19.10023,0 -34.58404,-10.4821 -34.58404,-23.41243c0,-12.93033 15.48379,-23.41243 34.58404,-23.41243c19.10023,0 34.58404,10.4821 34.58404,23.41243z" data-paper-data="{&quot;origPos&quot;:null}" fill="#6bba32" stroke="#63ad2f" stroke-linecap="butt"/><path d="M171.19783,172.37074c0,12.93033 -15.48379,23.41243 -34.58404,23.41243c-19.10023,0 -34.58404,-10.4821 -34.58404,-23.41243c0,-12.93033 15.48379,-23.41243 34.58404,-23.41243c19.10023,0 34.58404,10.4821 34.58404,23.41243z" data-paper-data="{&quot;origPos&quot;:null}" fill="#6bba32" stroke="#63ad2f" stroke-linecap="butt"/><path d="M131.33827,158.99221c0,12.93033 -15.48379,23.41243 -34.58404,23.41243c-19.10023,0 -34.58404,-10.4821 -34.58404,-23.41243c0,-12.93033 15.48379,-23.41243 34.58404,-23.41243c19.10023,0 34.58404,10.4821 34.58404,23.41243z" data-paper-data="{&quot;origPos&quot;:null}" fill="#6bba32" stroke="#63ad2f" stroke-linecap="butt"/><path d="M96.16806,168.18995c0,12.93033 -15.48379,23.41243 -34.58404,23.41243c-19.10023,0 -34.58404,-10.4821 -34.58404,-23.41243c0,-12.93033 15.48379,-23.41243 34.58404,-23.41243c19.10023,0 34.58404,10.4821 34.58404,23.41243z" data-paper-data="{&quot;origPos&quot;:null}" fill="#6bba32" stroke="#63ad2f" stroke-linecap="butt"/><path d="M97.04546,182.4386l-1.75851,26.33898l2.93086,15.46893l12.89574,8.36158l-12.30957,-0.83616l-7.62021,-3.34463l2.36302,5.81915l-9.37873,0.83616l-3.51701,-7.52542l-5.8617,4.18079l-25.79148,4.18079l17.5851,-8.36158l4.68936,-8.36158l2.9125,-12.09034l-1.17234,-22.57627l-41.59972,-22.19215l43.37658,17.55932l-1.17234,-22.57627l11.7234,19.23164l52.7553,-6.68927z" data-paper-data="{&quot;origPos&quot;:null}" fill="#ba7d33" stroke="#7b4c23" stroke-linecap="round"/><path d="M119.61487,123.0374c0,12.93033 -15.48379,23.41243 -34.58404,23.41243c-19.10023,0 -34.58404,-10.4821 -34.58404,-23.41243c0,-12.93033 15.48379,-23.41243 34.58404,-23.41243c19.10023,0 34.58404,10.4821 34.58404,23.41243z" data-paper-data="{&quot;origPos&quot;:null}" fill="#6bba32" stroke="#63ad2f" stroke-linecap="butt"/><path d="M88.54465,101.33119c0,12.93033 -15.48379,23.41243 -34.58404,23.41243c-19.10023,0 -34.58404,-10.4821 -34.58404,-23.41243c0,-12.93033 15.48379,-23.41243 34.58404,-23.41243c19.10023,0 34.58404,10.4821 34.58404,23.41243z" data-paper-data="{&quot;origPos&quot;:null}" fill="#6bba32" stroke="#63ad2f" stroke-linecap="butt"/><path d="M88.54465,169.89616c0,12.93033 -15.48379,23.41243 -34.58404,23.41243c-19.10023,0 -34.58404,-10.4821 -34.58404,-23.41243c0,-12.93033 15.48379,-23.41243 34.58404,-23.41243c19.10023,0 34.58404,10.4821 34.58404,23.41243z" data-paper-data="{&quot;origPos&quot;:null}" fill="#6bba32" stroke="#63ad2f" stroke-linecap="butt"/><path d="M104.95741,111.36509c0,12.93033 -15.48379,23.41243 -34.58404,23.41243c-19.10023,0 -34.58404,-10.4821 -34.58404,-23.41243c0,-12.93033 15.48379,-23.41243 34.58404,-23.41243c19.10023,0 34.58404,10.4821 34.58404,23.41243z" data-paper-data="{&quot;origPos&quot;:null}" fill="#6bba32" stroke="#63ad2f" stroke-linecap="butt"/><path d="M54.54679,130.59673c0,12.93033 -15.74623,23.41243 -35.17021,23.41243c-19.42396,0 -35.17021,-10.4821 -35.17021,-23.41243c0,-12.93033 15.74623,-23.41243 35.17021,-23.41243c19.42396,0 35.17021,10.4821 35.17021,23.41243z" data-paper-data="{&quot;origPos&quot;:null}" fill="#6bba32" stroke="#63ad2f" stroke-linecap="butt"/><path d="M126.05953,136.44983c0,12.93033 -15.48379,23.41243 -34.58404,23.41243c-19.10023,0 -34.58404,-10.4821 -34.58404,-23.41243c0,-12.93033 15.48379,-23.41243 34.58404,-23.41243c19.10023,0 34.58404,10.4821 34.58404,23.41243z" data-paper-data="{&quot;origPos&quot;:null}" fill="#6bba32" stroke="#63ad2f" stroke-linecap="butt"/><path d="M120.19783,162.37074c0,12.93033 -15.48379,23.41243 -34.58404,23.41243c-19.10023,0 -34.58404,-10.4821 -34.58404,-23.41243c0,-12.93033 15.48379,-23.41243 34.58404,-23.41243c19.10023,0 34.58404,10.4821 34.58404,23.41243z" data-paper-data="{&quot;origPos&quot;:null}" fill="#6bba32" stroke="#63ad2f" stroke-linecap="butt"/><path d="M80.33827,148.99221c0,12.93033 -15.48379,23.41243 -34.58404,23.41243c-19.10023,0 -34.58404,-10.4821 -34.58404,-23.41243c0,-12.93033 15.48379,-23.41243 34.58404,-23.41243c19.10023,0 34.58404,10.4821 34.58404,23.41243z" data-paper-data="{&quot;origPos&quot;:null}" fill="#6bba32" stroke="#63ad2f" stroke-linecap="butt"/><path d="M45.16806,158.18995c0,12.93033 -15.48379,23.41243 -34.58404,23.41243c-19.10023,0 -34.58404,-10.4821 -34.58404,-23.41243c0,-12.93033 15.48379,-23.41243 34.58404,-23.41243c19.10023,0 34.58404,10.4821 34.58404,23.41243z" data-paper-data="{&quot;origPos&quot;:null}" fill="#6bba32" stroke="#63ad2f" stroke-linecap="butt"/><path d="M58.04546,172.4386l-1.75851,26.33898l2.93086,15.46893l12.89574,8.36158l-12.30957,-0.83616l-7.62021,-3.34463l2.36302,5.81915l-9.37873,0.83616l-3.51701,-7.52542l-5.8617,4.18079l-25.79148,4.18079l17.5851,-8.36158l4.68936,-8.36158l2.9125,-12.09034l-1.17234,-22.57627l-41.59972,-22.19215l43.37658,17.55932l-1.17234,-22.57627l11.7234,19.23164l52.7553,-6.68927z" data-paper-data="{&quot;origPos&quot;:null}" fill="#ba7d33" stroke="#7b4c23" stroke-linecap="round"/><path d="M68.61487,113.0374c0,12.93033 -15.48379,23.41243 -34.58404,23.41243c-19.10023,0 -34.58404,-10.4821 -34.58404,-23.41243c0,-12.93033 15.48379,-23.41243 34.58404,-23.41243c19.10023,0 34.58404,10.4821 34.58404,23.41243z" data-paper-data="{&quot;origPos&quot;:null}" fill="#6bba32" stroke="#63ad2f" stroke-linecap="butt"/><path d="M115.54465,98.33119c0,12.93033 -15.48379,23.41243 -34.58404,23.41243c-19.10023,0 -34.58404,-10.4821 -34.58404,-23.41243c0,-12.93033 15.48379,-23.41243 34.58404,-23.41243c19.10023,0 34.58404,10.4821 34.58404,23.41243z" data-paper-data="{&quot;origPos&quot;:null}" fill="#6bba32" stroke="#63ad2f" stroke-linecap="butt"/><path d="M115.54465,166.89616c0,12.93033 -15.48379,23.41243 -34.58404,23.41243c-19.10023,0 -34.58404,-10.4821 -34.58404,-23.41243c0,-12.93033 15.48379,-23.41243 34.58404,-23.41243c19.10023,0 34.58404,10.4821 34.58404,23.41243z" data-paper-data="{&quot;origPos&quot;:null}" fill="#6bba32" stroke="#63ad2f" stroke-linecap="butt"/><path d="M131.95741,108.36509c0,12.93033 -15.48379,23.41243 -34.58404,23.41243c-19.10023,0 -34.58404,-10.4821 -34.58404,-23.41243c0,-12.93033 15.48379,-23.41243 34.58404,-23.41243c19.10023,0 34.58404,10.4821 34.58404,23.41243z" data-paper-data="{&quot;origPos&quot;:null}" fill="#6bba32" stroke="#63ad2f" stroke-linecap="butt"/><path d="M81.54679,127.59673c0,12.93033 -15.74623,23.41243 -35.17021,23.41243c-19.42396,0 -35.17021,-10.4821 -35.17021,-23.41243c0,-12.93033 15.74623,-23.41243 35.17021,-23.41243c19.42396,0 35.17021,10.4821 35.17021,23.41243z" data-paper-data="{&quot;origPos&quot;:null}" fill="#6bba32" stroke="#63ad2f" stroke-linecap="butt"/><path d="M153.05953,133.44983c0,12.93033 -15.48379,23.41243 -34.58404,23.41243c-19.10023,0 -34.58404,-10.4821 -34.58404,-23.41243c0,-12.93033 15.48379,-23.41243 34.58404,-23.41243c19.10023,0 34.58404,10.4821 34.58404,23.41243z" data-paper-data="{&quot;origPos&quot;:null}" fill="#6bba32" stroke="#63ad2f" stroke-linecap="butt"/><path d="M147.19783,159.37074c0,12.93033 -15.48379,23.41243 -34.58404,23.41243c-19.10023,0 -34.58404,-10.4821 -34.58404,-23.41243c0,-12.93033 15.48379,-23.41243 34.58404,-23.41243c19.10023,0 34.58404,10.4821 34.58404,23.41243z" data-paper-data="{&quot;origPos&quot;:null}" fill="#6bba32" stroke="#63ad2f" stroke-linecap="butt"/><path d="M107.33827,145.99221c0,12.93033 -15.48379,23.41243 -34.58404,23.41243c-19.10023,0 -34.58404,-10.4821 -34.58404,-23.41243c0,-12.93033 15.48379,-23.41243 34.58404,-23.41243c19.10023,0 34.58404,10.4821 34.58404,23.41243z" data-paper-data="{&quot;origPos&quot;:null}" fill="#6bba32" stroke="#63ad2f" stroke-linecap="butt"/><path d="M72.16806,155.18995c0,12.93033 -15.48379,23.41243 -34.58404,23.41243c-19.10023,0 -34.58404,-10.4821 -34.58404,-23.41243c0,-12.93033 15.48379,-23.41243 34.58404,-23.41243c19.10023,0 34.58404,10.4821 34.58404,23.41243z" data-paper-data="{&quot;origPos&quot;:null}" fill="#6bba32" stroke="#63ad2f" stroke-linecap="butt"/><path d="M85.04546,169.4386l-1.75851,26.33898l2.93086,15.46893l12.89574,8.36158l-12.30957,-0.83616l-7.62021,-3.34463l2.36302,5.81915l-9.37873,0.83616l-3.51701,-7.52542l-5.8617,4.18079l-25.79148,4.18079l17.5851,-8.36158l4.68936,-8.36158l2.9125,-12.09034l-1.17234,-22.57627l-41.59972,-22.19215l43.37658,17.55932l-1.17234,-22.57627l11.7234,19.23164l52.7553,-6.68927z" data-paper-data="{&quot;origPos&quot;:null}" fill="#ba7d33" stroke="#7b4c23" stroke-linecap="round"/><path d="M95.61487,110.0374c0,12.93033 -15.48379,23.41243 -34.58404,23.41243c-19.10023,0 -34.58404,-10.4821 -34.58404,-23.41243c0,-12.93033 15.48379,-23.41243 34.58404,-23.41243c19.10023,0 34.58404,10.4821 34.58404,23.41243z" data-paper-data="{&quot;origPos&quot;:null}" fill="#6bba32" stroke="#63ad2f" stroke-linecap="butt"/><path d="M103.54465,113.33119c0,12.93033 -15.48379,23.41243 -34.58404,23.41243c-19.10023,0 -34.58404,-10.4821 -34.58404,-23.41243c0,-12.93033 15.48379,-23.41243 34.58404,-23.41243c19.10023,0 34.58404,10.4821 34.58404,23.41243z" data-paper-data="{&quot;origPos&quot;:null}" fill="#6bba32" stroke="#63ad2f" stroke-linecap="butt"/><path d="M103.54465,181.89616c0,12.93033 -15.48379,23.41243 -34.58404,23.41243c-19.10023,0 -34.58404,-10.4821 -34.58404,-23.41243c0,-12.93033 15.48379,-23.41243 34.58404,-23.41243c19.10023,0 34.58404,10.4821 34.58404,23.41243z" data-paper-data="{&quot;origPos&quot;:null}" fill="#6bba32" stroke="#63ad2f" stroke-linecap="butt"/><path d="M119.95741,123.36509c0,12.93033 -15.48379,23.41243 -34.58404,23.41243c-19.10023,0 -34.58404,-10.4821 -34.58404,-23.41243c0,-12.93033 15.48379,-23.41243 34.58404,-23.41243c19.10023,0 34.58404,10.4821 34.58404,23.41243z" data-paper-data="{&quot;origPos&quot;:null}" fill="#6bba32" stroke="#63ad2f" stroke-linecap="butt"/><path d="M69.54679,142.59673c0,12.93033 -15.74623,23.41243 -35.17021,23.41243c-19.42396,0 -35.17021,-10.4821 -35.17021,-23.41243c0,-12.93033 15.74623,-23.41243 35.17021,-23.41243c19.42396,0 35.17021,10.4821 35.17021,23.41243z" data-paper-data="{&quot;origPos&quot;:null}" fill="#6bba32" stroke="#63ad2f" stroke-linecap="butt"/><path d="M141.05953,148.44983c0,12.93033 -15.48379,23.41243 -34.58404,23.41243c-19.10023,0 -34.58404,-10.4821 -34.58404,-23.41243c0,-12.93033 15.48379,-23.41243 34.58404,-23.41243c19.10023,0 34.58404,10.4821 34.58404,23.41243z" data-paper-data="{&quot;origPos&quot;:null}" fill="#6bba32" stroke="#63ad2f" stroke-linecap="butt"/><path d="M135.19783,174.37074c0,12.93033 -15.48379,23.41243 -34.58404,23.41243c-19.10023,0 -34.58404,-10.4821 -34.58404,-23.41243c0,-12.93033 15.48379,-23.41243 34.58404,-23.41243c19.10023,0 34.58404,10.4821 34.58404,23.41243z" data-paper-data="{&quot;origPos&quot;:null}" fill="#6bba32" stroke="#63ad2f" stroke-linecap="butt"/><path d="M95.33827,160.99221c0,12.93033 -15.48379,23.41243 -34.58404,23.41243c-19.10023,0 -34.58404,-10.4821 -34.58404,-23.41243c0,-12.93033 15.48379,-23.41243 34.58404,-23.41243c19.10023,0 34.58404,10.4821 34.58404,23.41243z" data-paper-data="{&quot;origPos&quot;:null}" fill="#6bba32" stroke="#63ad2f" stroke-linecap="butt"/><path d="M60.16806,170.18995c0,12.93033 -15.48379,23.41243 -34.58404,23.41243c-19.10023,0 -34.58404,-10.4821 -34.58404,-23.41243c0,-12.93033 15.48379,-23.41243 34.58404,-23.41243c19.10023,0 34.58404,10.4821 34.58404,23.41243z" data-paper-data="{&quot;origPos&quot;:null}" fill="#6bba32" stroke="#63ad2f" stroke-linecap="butt"/><path d="M73.04546,184.4386l-1.75851,26.33898l2.93086,15.46893l12.89574,8.36158l-12.30957,-0.83616l-7.62021,-3.34463l2.36302,5.81915l-9.37873,0.83616l-3.51701,-7.52542l-5.8617,4.18079l-25.79148,4.18079l17.5851,-8.36158l4.68936,-8.36158l2.9125,-12.09034l-1.17234,-22.57627l-41.59972,-22.19215l43.37658,17.55932l-1.17234,-22.57627l11.7234,19.23164l52.7553,-6.68927z" data-paper-data="{&quot;origPos&quot;:null}" fill="#ba7d33" stroke="#7b4c23" stroke-linecap="round"/><path d="M83.61487,125.0374c0,12.93033 -15.48379,23.41243 -34.58404,23.41243c-19.10023,0 -34.58404,-10.4821 -34.58404,-23.41243c0,-12.93033 15.48379,-23.41243 34.58404,-23.41243c19.10023,0 34.58404,10.4821 34.58404,23.41243z" data-paper-data="{&quot;origPos&quot;:null}" fill="#6bba32" stroke="#63ad2f" stroke-linecap="butt"/><path d="M46.61487,93.0374c0,12.93033 -15.48379,23.41243 -34.58404,23.41243c-19.10023,0 -34.58404,-10.4821 -34.58404,-23.41243c0,-12.93033 15.48379,-23.41243 34.58404,-23.41243c19.10023,0 34.58404,10.4821 34.58404,23.41243z" data-paper-data="{&quot;origPos&quot;:null}" fill="#6bba32" stroke="#63ad2f" stroke-linecap="butt"/><path d="M117.61487,32.0374c0,12.93033 -15.48379,23.41243 -34.58404,23.41243c-19.10023,0 -34.58404,-10.4821 -34.58404,-23.41243c0,-12.93033 15.48379,-23.41243 34.58404,-23.41243c19.10023,0 34.58404,10.4821 34.58404,23.41243z" data-paper-data="{&quot;origPos&quot;:null}" fill="#6bba32" stroke="#63ad2f" stroke-linecap="butt"/><path d="M51.61487,17.0374c0,12.93033 -15.48379,23.41243 -34.58404,23.41243c-19.10023,0 -34.58404,-10.4821 -34.58404,-23.41243c0,-12.93033 15.48379,-23.41243 34.58404,-23.41243c19.10023,0 34.58404,10.4821 34.58404,23.41243z" data-paper-data="{&quot;origPos&quot;:null}" fill="#6bba32" stroke="#63ad2f" stroke-linecap="butt"/><path d="M101.61487,10.0374c0,12.93033 -15.48379,23.41243 -34.58404,23.41243c-19.10023,0 -34.58404,-10.4821 -34.58404,-23.41243c0,-12.93033 15.48379,-23.41243 34.58404,-23.41243c19.10023,0 34.58404,10.4821 34.58404,23.41243z" data-paper-data="{&quot;origPos&quot;:null}" fill="#6bba32" stroke="#63ad2f" stroke-linecap="butt"/><path d="M75.61487,75.0374c0,12.93033 -15.48379,23.41243 -34.58404,23.41243c-19.10023,0 -34.58404,-10.4821 -34.58404,-23.41243c0,-12.93033 15.48379,-23.41243 34.58404,-23.41243c19.10023,0 34.58404,10.4821 34.58404,23.41243z" data-paper-data="{&quot;origPos&quot;:null}" fill="#6bba32" stroke="#63ad2f" stroke-linecap="butt"/><path d="M30.04546,186.4386l-1.75851,26.33898l2.93086,15.46893l12.89574,8.36158l-12.30957,-0.83616l-7.62021,-3.34463l2.36302,5.81915l-9.37873,0.83616l-3.51701,-7.52542l-5.8617,4.18079l-25.79148,4.18079l17.5851,-8.36158l4.68936,-8.36158l2.9125,-12.09034l-1.17234,-22.57627l-41.59972,-22.19215l43.37658,17.55932l-1.17234,-22.57627l11.7234,19.23164l52.7553,-6.68927z" data-paper-data="{&quot;origPos&quot;:null}" fill="#ba7d33" stroke="#7b4c23" stroke-linecap="round"/></g></g></svg>