<svg version="1.1" xmlns="http://www.w3.org/2000/svg" xmlns:xlink="http://www.w3.org/1999/xlink" width="367.91353" height="260.43362" viewBox="0,0,367.91353,260.43362"><defs><linearGradient x1="718.62505" y1="102.20401" x2="718.62505" y2="170.47129" gradientUnits="userSpaceOnUse" id="color-1"><stop offset="0" stop-color="#959595"/><stop offset="1" stop-color="#959595"/></linearGradient><linearGradient x1="754.87317" y1="51.15456" x2="785.07995" y2="51.15456" gradientUnits="userSpaceOnUse" id="color-2"><stop offset="0" stop-color="#ffffff"/><stop offset="1" stop-color="#77aed3"/></linearGradient><linearGradient x1="700.50097" y1="40.88425" x2="739.76979" y2="40.88425" gradientUnits="userSpaceOnUse" id="color-3"><stop offset="0" stop-color="#ffffff"/><stop offset="1" stop-color="#77aed3"/></linearGradient></defs><g transform="translate(-467.3008,80.99434)"><g data-paper-data="{&quot;isPaintingLayer&quot;:true}" fill-rule="nonzero" stroke="#000000" stroke-linecap="round" stroke-linejoin="miter" stroke-miterlimit="10" stroke-dasharray="" stroke-dashoffset="0" style="mix-blend-mode: normal"><path d="M513.86095,0.00697l-43.49775,-14.49925l76.12106,-63.43422l195.73987,-1.81241l90.62031,108.74437l-34.43572,5.43722z" fill="#1a00ff" stroke-width="2.5"/><path d="M798.15263,105.97994l0.46365,42.4405l-112.20275,27.48817l-129.20316,0.60415l-39.87294,-1.81241l-0.1266,-97.85901l-0.14737,-83.07956l45.4386,0.61114l124.40311,-3.0277c0,0 -0.19686,0.49606 0.67983,0.62022c2.63007,0.3725 109.79492,36.98721 109.79492,36.98721c0,0 0.58727,8.16958 0.35389,8.89529c-0.07781,0.2419 0.41887,49.70584 0.41887,49.70584z" fill="#e0e0e0" stroke-width="2.5"/><path d="M687.21001,178.18928v0l-0.60413,-184.2613" fill="none" stroke-width="2.5"/><path d="M709.56302,170.47129v-68.26731h17.51993l0.60413,62.22594z" fill="url(#color-1)" stroke-width="0.5"/><path d="M723.45814,135.43145v-3.62481" fill="none" stroke-width="0.5"/><path d="M754.87317,81.05924v-59.8094l28.9985,9.06203l1.20828,50.14324z" fill="url(#color-2)" stroke-width="0.5"/><path d="M739.76979,79.85098h-39.26881v-77.93347l39.26881,15.10338z" fill="url(#color-3)" stroke-width="0.5"/><path d="M468.5508,-14.49228l217.48875,-7.24962l143.18009,52.55978" fill="none" stroke-width="2.5"/><path d="M684.22714,-21.74191l56.18459,-54.37219" fill="none" stroke-width="2.5"/></g></g></svg>