<svg version="1.1" xmlns="http://www.w3.org/2000/svg" xmlns:xlink="http://www.w3.org/1999/xlink" width="196.11113" height="36.20301" viewBox="0,0,196.11113,36.20301"><g transform="translate(-171.29774,-153.50101)"><g data-paper-data="{&quot;isPaintingLayer&quot;:true}" fill-rule="nonzero" stroke-linejoin="miter" stroke-miterlimit="10" stroke-dasharray="" stroke-dashoffset="0" style="mix-blend-mode: normal"><path d="M215.53504,186.45703l9.93233,-23.76923c37.40057,0.20679 33.47872,0.10575 70.88022,-0.0042l39.02792,23.48404z" fill="#876244" stroke="#876244" stroke-width="2" stroke-linecap="round"/><path d="M224.95559,186.97115l0.49224,-2.29761l44.53629,-0.10318l1.11452,2.15477z" fill="#c9b5a5" stroke="#c9b5a5" stroke-width="0.5" stroke-linecap="butt"/><path d="M234.62816,172.59298l-0.47688,15.86104" fill="none" stroke="#d2d2d2" stroke-width="2.5" stroke-linecap="round"/><path d="M263.20901,188.11241l-5.57048,-15.99351" fill="none" stroke="#d2d2d2" stroke-width="2.5" stroke-linecap="round"/><path d="M284.68669,186.75687l-2.26481,-2.01189l38.8089,0.03967l4.5921,2.2262z" fill="#c9b5a5" stroke="#c9b5a5" stroke-width="0.5" stroke-linecap="butt"/><path d="M277.42538,171.52926l15.38226,16.51304" fill="none" stroke="#d2d2d2" stroke-width="2.5" stroke-linecap="round"/><path d="M320.7078,188.2784l-20.1989,-16.75098" fill="none" stroke="#d2d2d2" stroke-width="2.5" stroke-linecap="round"/><path d="M217.85433,175.82734l-3.21288,7.71092l-0.12129,-17.06481l3.1717,-4.2161z" fill="#3d3d3d" stroke="#3d3d3d" stroke-width="2" stroke-linecap="round"/><path d="M184.93108,154.50103l35.46298,0.80322l-3.85545,4.97997l-44.69834,0.01131c-0.15784,-0.10194 12.89082,-5.79451 12.89082,-5.79451z" fill="#666666" stroke="#666666" stroke-width="2" stroke-linecap="butt"/><path d="M337.95647,185.55526l-13.33346,-7.87156l-0.14286,-14.58205l13.20866,5.01567z" fill="#3d3d3d" stroke="#3d3d3d" stroke-width="2" stroke-linecap="butt"/><path d="M337.24162,164.49296l-9.96022,-3.6591h20.70446c0,0 -0.04318,0.00045 12.60422,3.9647z" fill="#666666" stroke="#666666" stroke-width="2" stroke-linecap="butt"/><path d="M212.18318,160.32046l5.15384,-5.10256h1.19231l-4.46153,5.02564z" fill="#ffd900" stroke="#ffd900" stroke-width="2" stroke-linecap="butt"/><path d="M339.44471,165.25599l-14.07967,-5.18681h0.99451l14.48077,5.21154z" fill="#ffd900" stroke="#ffd900" stroke-width="0.5" stroke-linecap="butt"/><path d="M321.84562,164.89569l-0.0108,-5.06644l16.82808,6.25831l0.06811,5.64285z" fill="#8f8f8f" stroke="#3d3d3d" stroke-width="0" stroke-linecap="butt"/><path d="M213.74021,174.26525v-8.22353l8.4,-11.03529l0.06471,6.84706z" fill="#8f8f8f" stroke="#8f8f8f" stroke-width="0.5" stroke-linecap="butt"/></g></g></svg>