<svg version="1.1" xmlns="http://www.w3.org/2000/svg" xmlns:xlink="http://www.w3.org/1999/xlink" width="337.4472" height="250.56181" viewBox="0,0,337.4472,250.56181"><defs><linearGradient x1="571.4632" y1="82.97323" x2="571.4632" y2="163.57259" gradientUnits="userSpaceOnUse" id="color-1"><stop offset="0" stop-color="#959595"/><stop offset="1" stop-color="#959595"/></linearGradient><linearGradient x1="528.66706" y1="22.70199" x2="493.00361" y2="22.70199" gradientUnits="userSpaceOnUse" id="color-2"><stop offset="0" stop-color="#ffffff"/><stop offset="1" stop-color="#77aed3"/></linearGradient><linearGradient x1="592.86131" y1="10.57642" x2="546.49878" y2="10.57642" gradientUnits="userSpaceOnUse" id="color-3"><stop offset="0" stop-color="#ffffff"/><stop offset="1" stop-color="#77aed3"/></linearGradient></defs><g transform="translate(-475.76128,76.62701)"><g data-paper-data="{&quot;isPaintingLayer&quot;:true}" fill-rule="nonzero" stroke="#000000" stroke-linecap="round" stroke-linejoin="miter" stroke-miterlimit="10" stroke-dasharray="" stroke-dashoffset="0" style="mix-blend-mode: normal"><path d="M477.56935,65.67654c0,0 0.58639,-58.39931 0.49453,-58.68491c-0.27554,-0.8568 0.41782,-23.34102 0.41782,-23.34102c0,0 134.01286,-58.20758 137.11805,-58.64738c1.03507,-0.1466 -0.26726,0.33764 -0.26726,0.33764l196.59962,-0.71326l-2.67041,128.40131l-0.14946,115.53666l-47.07574,2.1398l-152.54294,-0.71328l-132.47152,-32.45374l0.5474,-50.10712z" data-paper-data="{&quot;index&quot;:null}" fill="#e0e0e0" stroke-width="2.5"/><path d="M608.55318,172.68479v0l0.71326,-241.0849" data-paper-data="{&quot;index&quot;:null}" fill="none" stroke-width="2.5"/><path d="M560.76417,156.4399l0.71326,-73.46669h20.6848v80.59939z" data-paper-data="{&quot;index&quot;:null}" fill="url(#color-1)" stroke-width="0.5"/><path d="M565.75704,117.9234v4.27961" data-paper-data="{&quot;index&quot;:null}" fill="none" stroke-width="0.5"/><path d="M493.00361,57.29552l1.42655,-59.20133l34.23691,-10.69904v70.61362z" data-paper-data="{&quot;index&quot;:null}" fill="url(#color-2)" stroke-width="0.5"/><path d="M546.49878,-17.59772l46.36249,-17.83172v92.01169h-46.36249z" data-paper-data="{&quot;index&quot;:null}" fill="url(#color-3)" stroke-width="0.5"/></g></g></svg>