<svg version="1.1" xmlns="http://www.w3.org/2000/svg" xmlns:xlink="http://www.w3.org/1999/xlink" width="318.87155" height="270.45703" viewBox="0,0,318.87155,270.45703"><defs><linearGradient x1="576.64249" y1="94.05739" x2="576.64249" y2="168.29485" gradientUnits="userSpaceOnUse" id="color-1"><stop offset="0" stop-color="#959595"/><stop offset="1" stop-color="#959595"/></linearGradient><linearGradient x1="537.22437" y1="38.54352" x2="504.37592" y2="38.54352" gradientUnits="userSpaceOnUse" id="color-2"><stop offset="0" stop-color="#ffffff"/><stop offset="1" stop-color="#77aed3"/></linearGradient><linearGradient x1="596.35157" y1="27.37504" x2="553.64858" y2="27.37504" gradientUnits="userSpaceOnUse" id="color-3"><stop offset="0" stop-color="#ffffff"/><stop offset="1" stop-color="#77aed3"/></linearGradient></defs><g transform="translate(-484.68969,92.51924)"><g data-paper-data="{&quot;isPaintingLayer&quot;:true}" fill-rule="nonzero" stroke="#000000" stroke-linejoin="miter" stroke-miterlimit="10" stroke-dasharray="" stroke-dashoffset="0" style="mix-blend-mode: normal"><path d="M490.15993,78.12598c0,0 0.54011,-53.7897 0.4555,-54.05276c-0.25379,-0.78917 0.38484,-21.49865 0.38484,-21.49865c0,0 123.43489,-53.61311 126.29497,-54.01819c0.95337,-0.13503 -0.24617,0.31099 -0.24617,0.31099l181.08151,-0.65696l-2.45963,118.26626l-0.13767,106.41706l-43.35994,1.97091l-140.50234,-0.65698l-122.0152,-29.89209l0.5042,-46.15204z" data-paper-data="{&quot;index&quot;:null}" fill="#ffffff" stroke-width="2.5" stroke-linecap="round"/><path d="M610.80486,176.68779v0l0.65696,-222.05545" data-paper-data="{&quot;index&quot;:null}" fill="none" stroke-width="2.5" stroke-linecap="round"/><path d="M566.78796,161.72514l0.65696,-67.66778h19.0521v74.23748z" data-paper-data="{&quot;index&quot;:null}" fill="url(#color-1)" stroke-width="0.5" stroke-linecap="round"/><path d="M571.38673,130.19066v-3.94181" data-paper-data="{&quot;index&quot;:null}" fill="none" stroke-width="0.5" stroke-linecap="round"/><path d="M504.37592,70.40649l1.31394,-54.52841l31.5345,-9.85453v65.03991z" data-paper-data="{&quot;index&quot;:null}" fill="url(#color-2)" stroke-width="0.5" stroke-linecap="round"/><path d="M553.64858,1.42477l42.70298,-16.42421v84.74897h-42.70298z" data-paper-data="{&quot;index&quot;:null}" fill="url(#color-3)" stroke-width="0.5" stroke-linecap="round"/><path d="M610.10679,-60.71686l0.49273,-30.05632l191.67064,-0.49273l-0.98545,30.54905z" data-paper-data="{&quot;index&quot;:null}" fill="#4300ff" stroke-width="2.5" stroke-linecap="butt"/><path d="M485.93969,10.51562v-19.70906l124.1671,-63.069v31.5345z" data-paper-data="{&quot;index&quot;:null}" fill="#4300ff" stroke-width="2.5" stroke-linecap="butt"/></g></g></svg>