<svg version="1.1" xmlns="http://www.w3.org/2000/svg" xmlns:xlink="http://www.w3.org/1999/xlink" width="320.77191" height="253.94052" viewBox="0,0,320.77191,253.94052"><defs><linearGradient x1="570.79098" y1="83.05048" x2="570.79098" y2="157.73392" gradientUnits="userSpaceOnUse" id="color-1"><stop offset="0" stop-color="#959595"/><stop offset="1" stop-color="#959595"/></linearGradient><linearGradient x1="531.13605" y1="27.20311" x2="498.09026" y2="27.20311" gradientUnits="userSpaceOnUse" id="color-2"><stop offset="0" stop-color="#ffffff"/><stop offset="1" stop-color="#77aed3"/></linearGradient><linearGradient x1="590.61847" y1="15.96754" x2="547.65893" y2="15.96754" gradientUnits="userSpaceOnUse" id="color-3"><stop offset="0" stop-color="#ffffff"/><stop offset="1" stop-color="#77aed3"/></linearGradient></defs><g transform="translate(-478.29328,86.51323)"><g data-paper-data="{&quot;isPaintingLayer&quot;:true}" fill-rule="nonzero" stroke="#000000" stroke-linejoin="miter" stroke-miterlimit="10" stroke-dasharray="" stroke-dashoffset="0" style="mix-blend-mode: normal"><path d="M483.78887,67.02336c0,0 0.54335,-54.11284 0.45823,-54.37748c-0.25532,-0.79391 0.38715,-21.6278 0.38715,-21.6278c0,0 124.17643,-53.93519 127.05369,-54.3427c0.95909,-0.13584 -0.24765,0.31286 -0.24765,0.31286l182.16937,-0.66091l-2.47441,118.97675l-0.13849,107.05636l-43.62043,1.98275l-141.34642,-0.66093l-122.74821,-30.07166l0.50723,-46.4293z" data-paper-data="{&quot;index&quot;:null}" fill="#ffffff" stroke-width="2.5" stroke-linecap="round"/><path d="M605.15858,166.17729v0l0.66091,-223.38946" data-paper-data="{&quot;index&quot;:null}" fill="none" stroke-width="2.5" stroke-linecap="round"/><path d="M560.87725,151.12475l0.66091,-68.07429h19.16656v74.68346z" data-paper-data="{&quot;index&quot;:null}" fill="url(#color-1)" stroke-width="0.5" stroke-linecap="round"/><path d="M565.50365,119.40083v-3.96549" data-paper-data="{&quot;index&quot;:null}" fill="none" stroke-width="0.5" stroke-linecap="round"/><path d="M498.09026,59.2575l1.32184,-54.856l31.72395,-9.91373v65.43064z" data-paper-data="{&quot;index&quot;:null}" fill="url(#color-2)" stroke-width="0.5" stroke-linecap="round"/><path d="M547.65893,-10.13863l42.95952,-16.52288v85.2581h-42.95952z" data-paper-data="{&quot;index&quot;:null}" fill="url(#color-3)" stroke-width="0.5" stroke-linecap="round"/><path d="M604.45631,-54.52733l0.49569,-30.23689l192.82211,-0.49569l-0.99137,30.73257z" data-paper-data="{&quot;index&quot;:null}" fill="#ff0000" stroke-width="2.5" stroke-linecap="butt"/><path d="M479.54328,-0.99317v-19.82747l124.91304,-63.44789v31.72395z" data-paper-data="{&quot;index&quot;:null}" fill="#ff0000" stroke-width="2.5" stroke-linecap="butt"/></g></g></svg>