<svg version="1.1" xmlns="http://www.w3.org/2000/svg" xmlns:xlink="http://www.w3.org/1999/xlink" width="276.07306" height="273.70555" viewBox="0,0,276.07306,273.70555"><g transform="translate(-477.74097,89.98289)"><g data-paper-data="{&quot;isPaintingLayer&quot;:true}" fill-rule="nonzero" stroke-width="2.5" stroke-linejoin="miter" stroke-miterlimit="10" stroke-dasharray="" stroke-dashoffset="0" style="mix-blend-mode: normal"><path d="M610.43427,-88.73289c34.8216,0 63.05005,19.10988 63.05005,42.68312c0,23.57324 -28.22848,42.68312 -63.05005,42.68312c-34.8216,0 -63.05005,-19.10988 -63.05005,-42.68312c0,-23.57324 28.22848,-42.68312 63.05005,-42.68312z" data-paper-data="{&quot;index&quot;:null}" fill="#6bba32" stroke="#63ad2f" stroke-linecap="butt"/><path d="M610.43427,36.26768c34.8216,0 63.05005,19.10988 63.05005,42.68312c0,23.57324 -28.22848,42.68312 -63.05005,42.68312c-34.8216,0 -63.05005,-19.10988 -63.05005,-42.68312c0,-23.57324 28.22848,-42.68312 63.05005,-42.68312z" data-paper-data="{&quot;index&quot;:null}" fill="#6bba32" stroke="#63ad2f" stroke-linecap="butt"/><path d="M580.51222,-70.44012c34.8216,0 63.05005,19.10988 63.05005,42.68312c0,23.57324 -28.22848,42.68312 -63.05005,42.68312c-34.8216,0 -63.05005,-19.10988 -63.05005,-42.68312c0,-23.57324 28.22848,-42.68312 63.05005,-42.68312z" data-paper-data="{&quot;index&quot;:null}" fill="#6bba32" stroke="#63ad2f" stroke-linecap="butt"/><path d="M673.4843,-35.37898c35.41179,0 64.11869,19.10988 64.11869,42.68312c0,23.57324 -28.70694,42.68312 -64.11869,42.68312c-35.41179,0 -64.11869,-19.10988 -64.11869,-42.68312c0,-23.57324 28.70694,-42.68312 64.11869,-42.68312z" data-paper-data="{&quot;index&quot;:null}" fill="#6bba32" stroke="#63ad2f" stroke-linecap="butt"/><path d="M542.04102,-24.70822c34.8216,0 63.05005,19.10988 63.05005,42.68312c0,23.57324 -28.22848,42.68312 -63.05005,42.68312c-34.8216,0 -63.05005,-19.10988 -63.05005,-42.68312c0,-23.57324 28.22848,-42.68312 63.05005,-42.68312z" data-paper-data="{&quot;index&quot;:null}" fill="#6bba32" stroke="#63ad2f" stroke-linecap="butt"/><path d="M552.72746,22.54811c34.8216,0 63.05005,19.10988 63.05005,42.68312c0,23.57324 -28.22848,42.68312 -63.05005,42.68312c-34.8216,0 -63.05005,-19.10988 -63.05005,-42.68312c0,-23.57324 28.22848,-42.68312 63.05005,-42.68312z" data-paper-data="{&quot;index&quot;:null}" fill="#6bba32" stroke="#63ad2f" stroke-linecap="butt"/><path d="M625.39529,-1.84225c34.8216,0 63.05005,19.10988 63.05005,42.68312c0,23.57324 -28.22848,42.68312 -63.05005,42.68312c-34.8216,0 -63.05005,-19.10988 -63.05005,-42.68312c0,-23.57324 28.22848,-42.68312 63.05005,-42.68312z" data-paper-data="{&quot;index&quot;:null}" fill="#6bba32" stroke="#63ad2f" stroke-linecap="butt"/><path d="M689.51399,14.92612c34.8216,0 63.05005,19.10988 63.05005,42.68312c0,23.57324 -28.22848,42.68312 -63.05005,42.68312c-34.8216,0 -63.05005,-19.10988 -63.05005,-42.68312c0,-23.57324 28.22848,-42.68312 63.05005,-42.68312z" data-paper-data="{&quot;index&quot;:null}" fill="#6bba32" stroke="#63ad2f" stroke-linecap="butt"/><path d="M528.14862,60.65805l96.17801,12.19519l21.37289,-35.06114l-2.13729,41.15872l79.0797,-32.01234l-75.84031,40.45843l-2.13729,41.15872l5.30977,22.04186l8.54916,15.24397l32.05934,15.24397l-47.02036,-7.62198l-10.68645,-7.62198l-6.41185,13.71957l-17.09833,-1.5244l4.30801,-10.60887l-13.89238,6.09758l-22.44154,1.5244l23.51018,-15.24397l5.34324,-28.20135l-3.20593,-48.01851z" data-paper-data="{&quot;index&quot;:null}" fill="#ba7d33" stroke="#7b4c23" stroke-linecap="round"/><path d="M646.76819,-67.39134c34.8216,0 63.05005,19.10988 63.05005,42.68312c0,23.57324 -28.22848,42.68312 -63.05005,42.68312c-34.8216,0 -63.05005,-19.10988 -63.05005,-42.68312c0,-23.57324 28.22848,-42.68312 63.05005,-42.68312z" data-paper-data="{&quot;index&quot;:null}" fill="#6bba32" stroke="#63ad2f" stroke-linecap="butt"/></g></g></svg>