<svg version="1.1" xmlns="http://www.w3.org/2000/svg" xmlns:xlink="http://www.w3.org/1999/xlink" width="362.58009" height="286.97355" viewBox="0,0,362.58009,286.97355"><defs><linearGradient x1="584.67073" y1="72.12952" x2="584.67073" y2="156.62464" gradientUnits="userSpaceOnUse" id="color-1"><stop offset="0" stop-color="#959595"/><stop offset="1" stop-color="#959595"/></linearGradient><linearGradient x1="539.80605" y1="8.94509" x2="502.41882" y2="8.94509" gradientUnits="userSpaceOnUse" id="color-2"><stop offset="0" stop-color="#ffffff"/><stop offset="1" stop-color="#77aed3"/></linearGradient><linearGradient x1="607.10309" y1="-3.76657" x2="558.49966" y2="-3.76657" gradientUnits="userSpaceOnUse" id="color-3"><stop offset="0" stop-color="#ffffff"/><stop offset="1" stop-color="#77aed3"/></linearGradient></defs><g transform="translate(-480.18518,119.54628)"><g data-paper-data="{&quot;isPaintingLayer&quot;:true}" fill-rule="nonzero" stroke="#000000" stroke-linejoin="miter" stroke-miterlimit="10" stroke-dasharray="" stroke-dashoffset="0" style="mix-blend-mode: normal"><path d="M486.23855,53.99681c0,0 0.61474,-61.22202 0.51843,-61.52142c-0.28886,-0.89821 0.43801,-24.46919 0.43801,-24.46919c0,0 140.49034,-61.02103 143.74561,-61.48208c1.0851,-0.15368 -0.28018,0.35396 -0.28018,0.35396l206.10221,-0.74774l-2.79949,134.60755l-0.15669,121.12109l-49.35114,2.24323l-159.91607,-0.74776l-138.87449,-34.02238l0.57386,-52.52904z" data-paper-data="{&quot;index&quot;:null}" fill="#e0e0e0" stroke-width="2.5" stroke-linecap="round"/><path d="M624.30117,-86.5604l-0.74774,252.73767v0" data-paper-data="{&quot;index&quot;:null}" fill="none" stroke-width="2.5" stroke-linecap="round"/><path d="M573.45456,149.14718l0.74774,-77.01768h21.6846v84.49514z" data-paper-data="{&quot;index&quot;:null}" fill="url(#color-1)" stroke-width="0.5" stroke-linecap="round"/><path d="M578.68876,113.25546v-4.48647" data-paper-data="{&quot;index&quot;:null}" fill="none" stroke-width="0.5" stroke-linecap="round"/><path d="M502.41882,45.21069l1.4955,-62.06281l35.89174,-11.21617v74.02671z" data-paper-data="{&quot;index&quot;:null}" fill="url(#color-2)" stroke-width="0.5" stroke-linecap="round"/><path d="M558.49966,-33.30249l48.6034,-18.69361v96.45905h-48.6034z" data-paper-data="{&quot;index&quot;:null}" fill="url(#color-3)" stroke-width="0.5" stroke-linecap="round"/><path d="M622.75891,-83.52284l0.56081,-34.20931l218.15448,-0.56081l-1.12162,34.77012z" data-paper-data="{&quot;index&quot;:null}" fill="#ff0000" stroke-width="2.5" stroke-linecap="butt"/><path d="M481.43518,-22.95553v-22.43234l141.32372,-71.78348v35.89174z" data-paper-data="{&quot;index&quot;:null}" fill="#ff0000" stroke-width="2.5" stroke-linecap="butt"/></g></g></svg>