<svg version="1.1" xmlns="http://www.w3.org/2000/svg" xmlns:xlink="http://www.w3.org/1999/xlink" width="329.09172" height="384.01068" viewBox="0,0,329.09172,384.01068"><g transform="translate(-486.24483,203.81422)"><g data-paper-data="{&quot;isPaintingLayer&quot;:true}" fill-rule="nonzero" stroke-width="2.5" stroke-linejoin="miter" stroke-miterlimit="10" stroke-dasharray="" stroke-dashoffset="0" style="mix-blend-mode: normal"><path d="M584.17664,98.23985l-2.60814,39.06479l4.34692,22.94282l19.12638,12.40152l-18.257,-1.24015l-11.30195,-4.96061l3.50473,8.6307l-13.91011,1.24015l-5.21627,-11.16137l-8.69381,6.20076l-38.25277,6.20076l26.08143,-12.40152l6.95505,-12.40152l4.31969,-17.93185l-1.73876,-33.48411l-61.69884,-32.9144l64.3342,26.04319l-1.73876,-33.48411l17.38762,28.5235l78.24429,-9.92122z" data-paper-data="{&quot;index&quot;:null}" fill="#ba7d33" stroke="#7b4c23" stroke-linecap="round"/><path d="M612.35659,98.23985l-2.60814,39.06479l4.34692,22.94282l19.12638,12.40152l-18.257,-1.24015l-11.30195,-4.96061l3.50473,8.6307l-13.91011,1.24015l-5.21627,-11.16137l-8.69381,6.20076l-38.25277,6.20076l26.08143,-12.40152l6.95505,-12.40152l4.31969,-17.93185l-1.73876,-33.48411l-61.69884,-32.9144l64.3342,26.04319l-1.73876,-33.48411l17.38762,28.5235l78.24429,-9.92122z" data-paper-data="{&quot;index&quot;:null}" fill="#ba7d33" stroke="#7b4c23" stroke-linecap="round"/><path d="M740.6483,-106.59486c0,19.17768 -22.96486,34.72426 -51.2935,34.72426c-28.3286,0 -51.2935,-15.54658 -51.2935,-34.72426c0,-19.17768 22.96486,-34.72426 51.2935,-34.72426c28.3286,0 51.2935,15.54658 51.2935,34.72426z" data-paper-data="{&quot;index&quot;:null}" fill="#6bba32" stroke="#63ad2f" stroke-linecap="butt"/><path d="M740.6483,-4.90237c0,19.17768 -22.96486,34.72426 -51.2935,34.72426c-28.3286,0 -51.2935,-15.54658 -51.2935,-34.72426c0,-19.17768 22.96486,-34.72426 51.2935,-34.72426c28.3286,0 51.2935,15.54658 51.2935,34.72426z" data-paper-data="{&quot;index&quot;:null}" fill="#6bba32" stroke="#63ad2f" stroke-linecap="butt"/><path d="M764.99097,-91.71303c0,19.17768 -22.96486,34.72426 -51.2935,34.72426c-28.3286,0 -51.2935,-15.54658 -51.2935,-34.72426c0,-19.17768 22.96486,-34.72426 51.2935,-34.72426c28.3286,0 51.2935,15.54658 51.2935,34.72426z" data-paper-data="{&quot;index&quot;:null}" fill="#6bba32" stroke="#63ad2f" stroke-linecap="butt"/><path d="M690.2242,-63.18952c0,19.17768 -23.3541,34.72426 -52.16288,34.72426c-28.80875,0 -52.16288,-15.54658 -52.16288,-34.72426c0,-19.17768 23.3541,-34.72426 52.16288,-34.72426c28.80875,0 52.16288,15.54658 52.16288,34.72426z" data-paper-data="{&quot;index&quot;:null}" fill="#6bba32" stroke="#63ad2f" stroke-linecap="butt"/><path d="M796.28869,-54.50847c0,19.17768 -22.96486,34.72426 -51.2935,34.72426c-28.3286,0 -51.2935,-15.54658 -51.2935,-34.72426c0,-19.17768 22.96486,-34.72426 51.2935,-34.72426c28.3286,0 51.2935,15.54658 51.2935,34.72426z" data-paper-data="{&quot;index&quot;:null}" fill="#6bba32" stroke="#63ad2f" stroke-linecap="butt"/><path d="M787.59488,-16.06374c0,19.17768 -22.96486,34.72426 -51.2935,34.72426c-28.3286,0 -51.2935,-15.54658 -51.2935,-34.72426c0,-19.17768 22.96486,-34.72426 51.2935,-34.72426c28.3286,0 51.2935,15.54658 51.2935,34.72426z" data-paper-data="{&quot;index&quot;:null}" fill="#6bba32" stroke="#63ad2f" stroke-linecap="butt"/><path d="M728.47697,-35.90617c0,19.17768 -22.96486,34.72426 -51.2935,34.72426c-28.3286,0 -51.2935,-15.54658 -51.2935,-34.72426c0,-19.17768 22.96486,-34.72426 51.2935,-34.72426c28.3286,0 51.2935,15.54658 51.2935,34.72426z" data-paper-data="{&quot;index&quot;:null}" fill="#6bba32" stroke="#63ad2f" stroke-linecap="butt"/><path d="M676.31409,-22.2645c0,19.17768 -22.96486,34.72426 -51.2935,34.72426c-28.3286,0 -51.2935,-15.54658 -51.2935,-34.72426c0,-19.17768 22.96486,-34.72426 51.2935,-34.72426c28.3286,0 51.2935,15.54658 51.2935,34.72426z" data-paper-data="{&quot;index&quot;:null}" fill="#6bba32" stroke="#63ad2f" stroke-linecap="butt"/><path d="M695.41328,-1.13154l-2.60814,39.06479l4.34692,22.94282l19.12638,12.40152l-18.257,-1.24015l-11.30195,-4.96061l3.50473,8.6307l-13.91011,1.24015l-5.21627,-11.16137l-8.69381,6.20076l-38.25277,6.20076l26.08143,-12.40152l6.95505,-12.40152l4.31969,-17.93185l-1.73876,-33.48411l-61.69884,-32.9144l64.3342,26.04319l-1.73876,-33.48411l17.38762,28.5235l78.24429,-9.92122z" data-paper-data="{&quot;index&quot;:null}" fill="#ba7d33" stroke="#7b4c23" stroke-linecap="round"/><path d="M711.08935,-89.23273c0,19.17768 -22.96486,34.72426 -51.2935,34.72426c-28.3286,0 -51.2935,-15.54658 -51.2935,-34.72426c0,-19.17768 22.96486,-34.72426 51.2935,-34.72426c28.3286,0 51.2935,15.54658 51.2935,34.72426z" data-paper-data="{&quot;index&quot;:null}" fill="#6bba32" stroke="#63ad2f" stroke-linecap="butt"/><path d="M656.10846,-125.87588c0,19.17768 -22.96486,34.72426 -51.2935,34.72426c-28.3286,0 -51.2935,-15.54658 -51.2935,-34.72426c0,-19.17768 22.96486,-34.72426 51.2935,-34.72426c28.3286,0 51.2935,15.54658 51.2935,34.72426z" data-paper-data="{&quot;index&quot;:null}" fill="#6bba32" stroke="#63ad2f" stroke-linecap="butt"/><path d="M656.10846,-24.18339c0,19.17768 -22.96486,34.72426 -51.2935,34.72426c-28.3286,0 -51.2935,-15.54658 -51.2935,-34.72426c0,-19.17768 22.96486,-34.72426 51.2935,-34.72426c28.3286,0 51.2935,15.54658 51.2935,34.72426z" data-paper-data="{&quot;index&quot;:null}" fill="#6bba32" stroke="#63ad2f" stroke-linecap="butt"/><path d="M680.45113,-110.99405c0,19.17768 -22.96486,34.72426 -51.2935,34.72426c-28.3286,0 -51.2935,-15.54658 -51.2935,-34.72426c0,-19.17768 22.96486,-34.72426 51.2935,-34.72426c28.3286,0 51.2935,15.54658 51.2935,34.72426z" data-paper-data="{&quot;index&quot;:null}" fill="#6bba32" stroke="#63ad2f" stroke-linecap="butt"/><path d="M605.68436,-82.47054c0,19.17768 -23.3541,34.72426 -52.16288,34.72426c-28.80875,0 -52.16288,-15.54658 -52.16288,-34.72426c0,-19.17768 23.3541,-34.72426 52.16288,-34.72426c28.80875,0 52.16288,15.54658 52.16288,34.72426z" data-paper-data="{&quot;index&quot;:null}" fill="#6bba32" stroke="#63ad2f" stroke-linecap="butt"/><path d="M711.74885,-73.78949c0,19.17768 -22.96486,34.72426 -51.2935,34.72426c-28.3286,0 -51.2935,-15.54658 -51.2935,-34.72426c0,-19.17768 22.96486,-34.72426 51.2935,-34.72426c28.3286,0 51.2935,15.54658 51.2935,34.72426z" data-paper-data="{&quot;index&quot;:null}" fill="#6bba32" stroke="#63ad2f" stroke-linecap="butt"/><path d="M703.05504,-35.34476c0,19.17768 -22.96486,34.72426 -51.2935,34.72426c-28.3286,0 -51.2935,-15.54658 -51.2935,-34.72426c0,-19.17768 22.96486,-34.72426 51.2935,-34.72426c28.3286,0 51.2935,15.54658 51.2935,34.72426z" data-paper-data="{&quot;index&quot;:null}" fill="#6bba32" stroke="#63ad2f" stroke-linecap="butt"/><path d="M643.93713,-55.18719c0,19.17768 -22.96486,34.72426 -51.2935,34.72426c-28.3286,0 -51.2935,-15.54658 -51.2935,-34.72426c0,-19.17768 22.96486,-34.72426 51.2935,-34.72426c28.3286,0 51.2935,15.54658 51.2935,34.72426z" data-paper-data="{&quot;index&quot;:null}" fill="#6bba32" stroke="#63ad2f" stroke-linecap="butt"/><path d="M591.77425,-41.54552c0,19.17768 -22.96486,34.72426 -51.2935,34.72426c-28.3286,0 -51.2935,-15.54658 -51.2935,-34.72426c0,-19.17768 22.96486,-34.72426 51.2935,-34.72426c28.3286,0 51.2935,15.54658 51.2935,34.72426z" data-paper-data="{&quot;index&quot;:null}" fill="#6bba32" stroke="#63ad2f" stroke-linecap="butt"/><path d="M610.87343,-20.41256l-2.60814,39.06479l4.34692,22.94282l19.12638,12.40152l-18.257,-1.24015l-11.30195,-4.96061l3.50473,8.6307l-13.91011,1.24015l-5.21627,-11.16137l-8.69381,6.20076l-38.25277,6.20076l26.08143,-12.40152l6.95505,-12.40152l4.31969,-17.93185l-1.73876,-33.48411l-61.69884,-32.9144l64.3342,26.04319l-1.73876,-33.48411l17.38762,28.5235l78.24429,-9.92122z" data-paper-data="{&quot;index&quot;:null}" fill="#ba7d33" stroke="#7b4c23" stroke-linecap="round"/><path d="M626.54951,-108.51375c0,19.17768 -22.96486,34.72426 -51.2935,34.72426c-28.3286,0 -51.2935,-15.54658 -51.2935,-34.72426c0,-19.17768 22.96486,-34.72426 51.2935,-34.72426c28.3286,0 51.2935,15.54658 51.2935,34.72426z" data-paper-data="{&quot;index&quot;:null}" fill="#6bba32" stroke="#63ad2f" stroke-linecap="butt"/><path d="M758.44617,-17.60555c0,19.17768 -22.96486,34.72426 -51.2935,34.72426c-28.3286,0 -51.2935,-15.54658 -51.2935,-34.72426c0,-19.17768 22.96486,-34.72426 51.2935,-34.72426c28.3286,0 51.2935,15.54658 51.2935,34.72426z" data-paper-data="{&quot;index&quot;:null}" fill="#6bba32" stroke="#63ad2f" stroke-linecap="butt"/><path d="M758.44617,84.08693c0,19.17768 -22.96486,34.72426 -51.2935,34.72426c-28.3286,0 -51.2935,-15.54658 -51.2935,-34.72426c0,-19.17768 22.96486,-34.72426 51.2935,-34.72426c28.3286,0 51.2935,15.54658 51.2935,34.72426z" data-paper-data="{&quot;index&quot;:null}" fill="#6bba32" stroke="#63ad2f" stroke-linecap="butt"/><path d="M782.78883,-2.72372c0,19.17768 -22.96486,34.72426 -51.2935,34.72426c-28.3286,0 -51.2935,-15.54658 -51.2935,-34.72426c0,-19.17768 22.96486,-34.72426 51.2935,-34.72426c28.3286,0 51.2935,15.54658 51.2935,34.72426z" data-paper-data="{&quot;index&quot;:null}" fill="#6bba32" stroke="#63ad2f" stroke-linecap="butt"/><path d="M708.02207,25.79978c0,19.17768 -23.3541,34.72426 -52.16288,34.72426c-28.80875,0 -52.16288,-15.54658 -52.16288,-34.72426c0,-19.17768 23.3541,-34.72426 52.16288,-34.72426c28.80875,0 52.16288,15.54658 52.16288,34.72426z" data-paper-data="{&quot;index&quot;:null}" fill="#6bba32" stroke="#63ad2f" stroke-linecap="butt"/><path d="M814.08655,34.48084c0,19.17768 -22.96486,34.72426 -51.2935,34.72426c-28.3286,0 -51.2935,-15.54658 -51.2935,-34.72426c0,-19.17768 22.96486,-34.72426 51.2935,-34.72426c28.3286,0 51.2935,15.54658 51.2935,34.72426z" data-paper-data="{&quot;index&quot;:null}" fill="#6bba32" stroke="#63ad2f" stroke-linecap="butt"/><path d="M805.39274,72.92557c0,19.17768 -22.96486,34.72426 -51.2935,34.72426c-28.3286,0 -51.2935,-15.54658 -51.2935,-34.72426c0,-19.17768 22.96486,-34.72426 51.2935,-34.72426c28.3286,0 51.2935,15.54658 51.2935,34.72426z" data-paper-data="{&quot;index&quot;:null}" fill="#6bba32" stroke="#63ad2f" stroke-linecap="butt"/><path d="M746.27483,53.08313c0,19.17768 -22.96486,34.72426 -51.2935,34.72426c-28.3286,0 -51.2935,-15.54658 -51.2935,-34.72426c0,-19.17768 22.96486,-34.72426 51.2935,-34.72426c28.3286,0 51.2935,15.54658 51.2935,34.72426z" data-paper-data="{&quot;index&quot;:null}" fill="#6bba32" stroke="#63ad2f" stroke-linecap="butt"/><path d="M694.11195,66.72481c0,19.17768 -22.96486,34.72426 -51.2935,34.72426c-28.3286,0 -51.2935,-15.54658 -51.2935,-34.72426c0,-19.17768 22.96486,-34.72426 51.2935,-34.72426c28.3286,0 51.2935,15.54658 51.2935,34.72426z" data-paper-data="{&quot;index&quot;:null}" fill="#6bba32" stroke="#63ad2f" stroke-linecap="butt"/><path d="M695.41328,87.85776l-2.60814,39.06479l4.34692,22.94282l19.12638,12.40152l-18.257,-1.24015l-11.30195,-4.96061l3.50473,8.6307l-13.91011,1.24015l-5.21627,-11.16137l-8.69381,6.20076l-38.25277,6.20076l26.08143,-12.40152l6.95505,-12.40152l4.31969,-17.93185l-1.73876,-33.48411l-61.69884,-32.9144l64.3342,26.04319l-1.73876,-33.48411l17.38762,28.5235l78.24429,-9.92122z" data-paper-data="{&quot;index&quot;:null}" fill="#ba7d33" stroke="#7b4c23" stroke-linecap="round"/><path d="M728.88721,-0.24343c0,19.17768 -22.96486,34.72426 -51.2935,34.72426c-28.3286,0 -51.2935,-15.54658 -51.2935,-34.72426c0,-19.17768 22.96486,-34.72426 51.2935,-34.72426c28.3286,0 51.2935,15.54658 51.2935,34.72426z" data-paper-data="{&quot;index&quot;:null}" fill="#6bba32" stroke="#63ad2f" stroke-linecap="butt"/><path d="M682.80526,-32.4371c0,19.17768 -22.96486,34.72426 -51.2935,34.72426c-28.3286,0 -51.2935,-15.54658 -51.2935,-34.72426c0,-19.17768 22.96486,-34.72426 51.2935,-34.72426c28.3286,0 51.2935,15.54658 51.2935,34.72426z" data-paper-data="{&quot;index&quot;:null}" fill="#6bba32" stroke="#63ad2f" stroke-linecap="butt"/><path d="M682.80526,69.25538c0,19.17768 -22.96486,34.72426 -51.2935,34.72426c-28.3286,0 -51.2935,-15.54658 -51.2935,-34.72426c0,-19.17768 22.96486,-34.72426 51.2935,-34.72426c28.3286,0 51.2935,15.54658 51.2935,34.72426z" data-paper-data="{&quot;index&quot;:null}" fill="#6bba32" stroke="#63ad2f" stroke-linecap="butt"/><path d="M707.14792,-17.55527c0,19.17768 -22.96486,34.72426 -51.2935,34.72426c-28.3286,0 -51.2935,-15.54658 -51.2935,-34.72426c0,-19.17768 22.96486,-34.72426 51.2935,-34.72426c28.3286,0 51.2935,15.54658 51.2935,34.72426z" data-paper-data="{&quot;index&quot;:null}" fill="#6bba32" stroke="#63ad2f" stroke-linecap="butt"/><path d="M632.38116,10.96823c0,19.17768 -23.3541,34.72426 -52.16288,34.72426c-28.80875,0 -52.16288,-15.54658 -52.16288,-34.72426c0,-19.17768 23.3541,-34.72426 52.16288,-34.72426c28.80875,0 52.16288,15.54658 52.16288,34.72426z" data-paper-data="{&quot;index&quot;:null}" fill="#6bba32" stroke="#63ad2f" stroke-linecap="butt"/><path d="M738.44564,19.64929c0,19.17768 -22.96486,34.72426 -51.2935,34.72426c-28.3286,0 -51.2935,-15.54658 -51.2935,-34.72426c0,-19.17768 22.96486,-34.72426 51.2935,-34.72426c28.3286,0 51.2935,15.54658 51.2935,34.72426z" data-paper-data="{&quot;index&quot;:null}" fill="#6bba32" stroke="#63ad2f" stroke-linecap="butt"/><path d="M729.75183,58.09402c0,19.17768 -22.96486,34.72426 -51.2935,34.72426c-28.3286,0 -51.2935,-15.54658 -51.2935,-34.72426c0,-19.17768 22.96486,-34.72426 51.2935,-34.72426c28.3286,0 51.2935,15.54658 51.2935,34.72426z" data-paper-data="{&quot;index&quot;:null}" fill="#6bba32" stroke="#63ad2f" stroke-linecap="butt"/><path d="M670.63392,38.25158c0,19.17768 -22.96486,34.72426 -51.2935,34.72426c-28.3286,0 -51.2935,-15.54658 -51.2935,-34.72426c0,-19.17768 22.96486,-34.72426 51.2935,-34.72426c28.3286,0 51.2935,15.54658 51.2935,34.72426z" data-paper-data="{&quot;index&quot;:null}" fill="#6bba32" stroke="#63ad2f" stroke-linecap="butt"/><path d="M618.47104,51.89326c0,19.17768 -22.96486,34.72426 -51.2935,34.72426c-28.3286,0 -51.2935,-15.54658 -51.2935,-34.72426c0,-19.17768 22.96486,-34.72426 51.2935,-34.72426c28.3286,0 51.2935,15.54658 51.2935,34.72426z" data-paper-data="{&quot;index&quot;:null}" fill="#6bba32" stroke="#63ad2f" stroke-linecap="butt"/><path d="M637.57023,73.02621l-2.60814,39.06479l4.34692,22.94282l19.12638,12.40152l-18.257,-1.24015l-11.30195,-4.96061l3.50473,8.6307l-13.91011,1.24015l-5.21627,-11.16137l-8.69381,6.20076l-38.25277,6.20076l26.08143,-12.40152l6.95505,-12.40152l4.31969,-17.93185l-1.73876,-33.48411l-61.69884,-32.9144l64.3342,26.04319l-1.73876,-33.48411l17.38762,28.5235l78.24429,-9.92122z" data-paper-data="{&quot;index&quot;:null}" fill="#ba7d33" stroke="#7b4c23" stroke-linecap="round"/><path d="M653.2463,-15.07498c0,19.17768 -22.96486,34.72426 -51.2935,34.72426c-28.3286,0 -51.2935,-15.54658 -51.2935,-34.72426c0,-19.17768 22.96486,-34.72426 51.2935,-34.72426c28.3286,0 51.2935,15.54658 51.2935,34.72426z" data-paper-data="{&quot;index&quot;:null}" fill="#6bba32" stroke="#63ad2f" stroke-linecap="butt"/><path d="M722.85044,-36.88657c0,19.17768 -22.96486,34.72426 -51.2935,34.72426c-28.3286,0 -51.2935,-15.54658 -51.2935,-34.72426c0,-19.17768 22.96486,-34.72426 51.2935,-34.72426c28.3286,0 51.2935,15.54658 51.2935,34.72426z" data-paper-data="{&quot;index&quot;:null}" fill="#6bba32" stroke="#63ad2f" stroke-linecap="butt"/><path d="M722.85044,64.80592c0,19.17768 -22.96486,34.72426 -51.2935,34.72426c-28.3286,0 -51.2935,-15.54658 -51.2935,-34.72426c0,-19.17768 22.96486,-34.72426 51.2935,-34.72426c28.3286,0 51.2935,15.54658 51.2935,34.72426z" data-paper-data="{&quot;index&quot;:null}" fill="#6bba32" stroke="#63ad2f" stroke-linecap="butt"/><path d="M747.19311,-22.00474c0,19.17768 -22.96486,34.72426 -51.2935,34.72426c-28.3286,0 -51.2935,-15.54658 -51.2935,-34.72426c0,-19.17768 22.96486,-34.72426 51.2935,-34.72426c28.3286,0 51.2935,15.54658 51.2935,34.72426z" data-paper-data="{&quot;index&quot;:null}" fill="#6bba32" stroke="#63ad2f" stroke-linecap="butt"/><path d="M672.42634,6.51877c0,19.17768 -23.3541,34.72426 -52.16288,34.72426c-28.80875,0 -52.16288,-15.54658 -52.16288,-34.72426c0,-19.17768 23.3541,-34.72426 52.16288,-34.72426c28.80875,0 52.16288,15.54658 52.16288,34.72426z" data-paper-data="{&quot;index&quot;:null}" fill="#6bba32" stroke="#63ad2f" stroke-linecap="butt"/><path d="M778.49083,15.19982c0,19.17768 -22.96486,34.72426 -51.2935,34.72426c-28.3286,0 -51.2935,-15.54658 -51.2935,-34.72426c0,-19.17768 22.96486,-34.72426 51.2935,-34.72426c28.3286,0 51.2935,15.54658 51.2935,34.72426z" data-paper-data="{&quot;index&quot;:null}" fill="#6bba32" stroke="#63ad2f" stroke-linecap="butt"/><path d="M769.79702,53.64455c0,19.17768 -22.96486,34.72426 -51.2935,34.72426c-28.3286,0 -51.2935,-15.54658 -51.2935,-34.72426c0,-19.17768 22.96486,-34.72426 51.2935,-34.72426c28.3286,0 51.2935,15.54658 51.2935,34.72426z" data-paper-data="{&quot;index&quot;:null}" fill="#6bba32" stroke="#63ad2f" stroke-linecap="butt"/><path d="M710.67911,33.80212c0,19.17768 -22.96486,34.72426 -51.2935,34.72426c-28.3286,0 -51.2935,-15.54658 -51.2935,-34.72426c0,-19.17768 22.96486,-34.72426 51.2935,-34.72426c28.3286,0 51.2935,15.54658 51.2935,34.72426z" data-paper-data="{&quot;index&quot;:null}" fill="#6bba32" stroke="#63ad2f" stroke-linecap="butt"/><path d="M658.51623,47.44379c0,19.17768 -22.96486,34.72426 -51.2935,34.72426c-28.3286,0 -51.2935,-15.54658 -51.2935,-34.72426c0,-19.17768 22.96486,-34.72426 51.2935,-34.72426c28.3286,0 51.2935,15.54658 51.2935,34.72426z" data-paper-data="{&quot;index&quot;:null}" fill="#6bba32" stroke="#63ad2f" stroke-linecap="butt"/><path d="M677.61541,68.57675l-2.60814,39.06479l4.34692,22.94282l19.12638,12.40152l-18.257,-1.24015l-11.30195,-4.96061l3.50473,8.6307l-13.91011,1.24015l-5.21627,-11.16137l-8.69381,6.20076l-38.25277,6.20076l26.08143,-12.40152l6.95505,-12.40152l4.31969,-17.93185l-1.73876,-33.48411l-61.69884,-32.9144l64.3342,26.04319l-1.73876,-33.48411l17.38762,28.5235l78.24429,-9.92122z" data-paper-data="{&quot;index&quot;:null}" fill="#ba7d33" stroke="#7b4c23" stroke-linecap="round"/><path d="M693.29149,-19.52444c0,19.17768 -22.96486,34.72426 -51.2935,34.72426c-28.3286,0 -51.2935,-15.54658 -51.2935,-34.72426c0,-19.17768 22.96486,-34.72426 51.2935,-34.72426c28.3286,0 51.2935,15.54658 51.2935,34.72426z" data-paper-data="{&quot;index&quot;:null}" fill="#6bba32" stroke="#63ad2f" stroke-linecap="butt"/><path d="M705.05258,-14.63924c0,19.17768 -22.96486,34.72426 -51.2935,34.72426c-28.3286,0 -51.2935,-15.54658 -51.2935,-34.72426c0,-19.17768 22.96486,-34.72426 51.2935,-34.72426c28.3286,0 51.2935,15.54658 51.2935,34.72426z" data-paper-data="{&quot;index&quot;:null}" fill="#6bba32" stroke="#63ad2f" stroke-linecap="butt"/><path d="M705.05258,87.05324c0,19.17768 -22.96486,34.72426 -51.2935,34.72426c-28.3286,0 -51.2935,-15.54658 -51.2935,-34.72426c0,-19.17768 22.96486,-34.72426 51.2935,-34.72426c28.3286,0 51.2935,15.54658 51.2935,34.72426z" data-paper-data="{&quot;index&quot;:null}" fill="#6bba32" stroke="#63ad2f" stroke-linecap="butt"/><path d="M729.39525,0.24259c0,19.17768 -22.96486,34.72426 -51.2935,34.72426c-28.3286,0 -51.2935,-15.54658 -51.2935,-34.72426c0,-19.17768 22.96486,-34.72426 51.2935,-34.72426c28.3286,0 51.2935,15.54658 51.2935,34.72426z" data-paper-data="{&quot;index&quot;:null}" fill="#6bba32" stroke="#63ad2f" stroke-linecap="butt"/><path d="M654.62848,28.76609c0,19.17768 -23.3541,34.72426 -52.16288,34.72426c-28.80875,0 -52.16288,-15.54658 -52.16288,-34.72426c0,-19.17768 23.3541,-34.72426 52.16288,-34.72426c28.80875,0 52.16288,15.54658 52.16288,34.72426z" data-paper-data="{&quot;index&quot;:null}" fill="#6bba32" stroke="#63ad2f" stroke-linecap="butt"/><path d="M760.69297,37.44715c0,19.17768 -22.96486,34.72426 -51.2935,34.72426c-28.3286,0 -51.2935,-15.54658 -51.2935,-34.72426c0,-19.17768 22.96486,-34.72426 51.2935,-34.72426c28.3286,0 51.2935,15.54658 51.2935,34.72426z" data-paper-data="{&quot;index&quot;:null}" fill="#6bba32" stroke="#63ad2f" stroke-linecap="butt"/><path d="M751.99916,75.89188c0,19.17768 -22.96486,34.72426 -51.2935,34.72426c-28.3286,0 -51.2935,-15.54658 -51.2935,-34.72426c0,-19.17768 22.96486,-34.72426 51.2935,-34.72426c28.3286,0 51.2935,15.54658 51.2935,34.72426z" data-paper-data="{&quot;index&quot;:null}" fill="#6bba32" stroke="#63ad2f" stroke-linecap="butt"/><path d="M692.88125,56.04944c0,19.17768 -22.96486,34.72426 -51.2935,34.72426c-28.3286,0 -51.2935,-15.54658 -51.2935,-34.72426c0,-19.17768 22.96486,-34.72426 51.2935,-34.72426c28.3286,0 51.2935,15.54658 51.2935,34.72426z" data-paper-data="{&quot;index&quot;:null}" fill="#6bba32" stroke="#63ad2f" stroke-linecap="butt"/><path d="M640.71837,69.69112c0,19.17768 -22.96486,34.72426 -51.2935,34.72426c-28.3286,0 -51.2935,-15.54658 -51.2935,-34.72426c0,-19.17768 22.96486,-34.72426 51.2935,-34.72426c28.3286,0 51.2935,15.54658 51.2935,34.72426z" data-paper-data="{&quot;index&quot;:null}" fill="#6bba32" stroke="#63ad2f" stroke-linecap="butt"/><path d="M659.81755,90.82407l-2.60814,39.06479l4.34692,22.94282l19.12638,12.40152l-18.257,-1.24015l-11.30195,-4.96061l3.50473,8.6307l-13.91011,1.24015l-5.21627,-11.16137l-8.69381,6.20076l-38.25277,6.20076l26.08143,-12.40152l6.95505,-12.40152l4.31969,-17.93185l-1.73876,-33.48411l-61.69884,-32.9144l64.3342,26.04319l-1.73876,-33.48411l17.38762,28.5235l78.24429,-9.92122z" data-paper-data="{&quot;index&quot;:null}" fill="#ba7d33" stroke="#7b4c23" stroke-linecap="round"/><path d="M675.49363,2.72288c0,19.17768 -22.96486,34.72426 -51.2935,34.72426c-28.3286,0 -51.2935,-15.54658 -51.2935,-34.72426c0,-19.17768 22.96486,-34.72426 51.2935,-34.72426c28.3286,0 51.2935,15.54658 51.2935,34.72426z" data-paper-data="{&quot;index&quot;:null}" fill="#6bba32" stroke="#63ad2f" stroke-linecap="butt"/><path d="M620.61689,-44.73808c0,19.17768 -22.96486,34.72426 -51.2935,34.72426c-28.3286,0 -51.2935,-15.54658 -51.2935,-34.72426c0,-19.17768 22.96486,-34.72426 51.2935,-34.72426c28.3286,0 51.2935,15.54658 51.2935,34.72426z" data-paper-data="{&quot;index&quot;:null}" fill="#6bba32" stroke="#63ad2f" stroke-linecap="butt"/><path d="M725.9209,-135.21054c0,19.17768 -22.96486,34.72426 -51.2935,34.72426c-28.3286,0 -51.2935,-15.54658 -51.2935,-34.72426c0,-19.17768 22.96486,-34.72426 51.2935,-34.72426c28.3286,0 51.2935,15.54658 51.2935,34.72426z" data-paper-data="{&quot;index&quot;:null}" fill="#6bba32" stroke="#63ad2f" stroke-linecap="butt"/><path d="M628.03266,-157.45787c0,19.17768 -22.96486,34.72426 -51.2935,34.72426c-28.3286,0 -51.2935,-15.54658 -51.2935,-34.72426c0,-19.17768 22.96486,-34.72426 51.2935,-34.72426c28.3286,0 51.2935,15.54658 51.2935,34.72426z" data-paper-data="{&quot;index&quot;:null}" fill="#6bba32" stroke="#63ad2f" stroke-linecap="butt"/><path d="M702.19042,-167.83995c0,19.17768 -22.96486,34.72426 -51.2935,34.72426c-28.3286,0 -51.2935,-15.54658 -51.2935,-34.72426c0,-19.17768 22.96486,-34.72426 51.2935,-34.72426c28.3286,0 51.2935,15.54658 51.2935,34.72426z" data-paper-data="{&quot;index&quot;:null}" fill="#6bba32" stroke="#63ad2f" stroke-linecap="butt"/><path d="M663.62839,-71.43487c0,19.17768 -22.96486,34.72426 -51.2935,34.72426c-28.3286,0 -51.2935,-15.54658 -51.2935,-34.72426c0,-19.17768 22.96486,-34.72426 51.2935,-34.72426c28.3286,0 51.2935,15.54658 51.2935,34.72426z" data-paper-data="{&quot;index&quot;:null}" fill="#6bba32" stroke="#63ad2f" stroke-linecap="butt"/><path d="M596.04188,93.79038l-2.60814,39.06479l4.34692,22.94282l19.12638,12.40152l-18.257,-1.24015l-11.30195,-4.96061l3.50473,8.6307l-13.91011,1.24015l-5.21627,-11.16137l-8.69381,6.20076l-38.25277,6.20076l26.08143,-12.40152l6.95505,-12.40152l4.31969,-17.93185l-1.73876,-33.48411l-61.69884,-32.9144l64.3342,26.04319l-1.73876,-33.48411l17.38762,28.5235l78.24429,-9.92122z" data-paper-data="{&quot;index&quot;:null}" fill="#ba7d33" stroke="#7b4c23" stroke-linecap="round"/></g></g></svg>