<svg version="1.1" xmlns="http://www.w3.org/2000/svg" xmlns:xlink="http://www.w3.org/1999/xlink" width="418.81025" height="296.46965" viewBox="0,0,418.81025,296.46965"><defs><linearGradient x1="752.45269" y1="108.10438" x2="752.45269" y2="185.90952" gradientUnits="userSpaceOnUse" id="color-1"><stop offset="0" stop-color="#959595"/><stop offset="1" stop-color="#959595"/></linearGradient><linearGradient x1="793.76517" y1="49.92264" x2="828.19224" y2="49.92264" gradientUnits="userSpaceOnUse" id="color-2"><stop offset="0" stop-color="#ffffff"/><stop offset="1" stop-color="#77aed3"/></linearGradient><linearGradient x1="731.79644" y1="38.21743" x2="776.55164" y2="38.21743" gradientUnits="userSpaceOnUse" id="color-3"><stop offset="0" stop-color="#ffffff"/><stop offset="1" stop-color="#77aed3"/></linearGradient></defs><g transform="translate(-466.18971,100.51384)"><g data-paper-data="{&quot;isPaintingLayer&quot;:true}" fill-rule="nonzero" stroke="#000000" stroke-linecap="round" stroke-linejoin="miter" stroke-miterlimit="10" stroke-dasharray="" stroke-dashoffset="0" style="mix-blend-mode: normal"><path d="M519.0803,-8.37096l-49.57497,-16.52499l86.7562,-72.29683l223.08736,-2.06562l103.28119,123.93742l-39.24685,6.19687z" fill="#ff0000" stroke-width="2.5"/><path d="M843.09135,112.40786l0.52843,48.37001l-127.87899,31.32863l-147.25458,0.68856l-45.44372,-2.06562l-0.14428,-111.53123l-0.16796,-94.68689l51.78698,0.69653l141.7839,-3.45071c0,0 -0.22437,0.56536 0.77482,0.70688c2.99753,0.42455 125.13474,42.15482 125.13474,42.15482c0,0 0.66932,9.31098 0.40333,10.13808c-0.08868,0.2757 0.47739,56.65041 0.47739,56.65041z" fill="#e0e0e0" stroke-width="2.5"/><path d="M715.96002,-15.29927l0.68853,210.00509v0" fill="none" stroke-width="2.5"/><path d="M742.12458,185.90952v-77.80517h19.9677l0.68853,70.91974z" fill="url(#color-1)" stroke-width="0.5"/><path d="M757.96103,141.84289v4.13125" fill="none" stroke-width="0.5"/><path d="M793.76517,84.00541v-68.16558l33.04998,10.32812l1.37709,57.14893z" fill="url(#color-2)" stroke-width="0.5"/><path d="M776.55164,82.62834h-44.75519v-88.82182l44.75519,17.21352z" fill="url(#color-3)" stroke-width="0.5"/><path d="M467.43971,-24.89595l247.87485,-8.26249l163.18427,59.90309" fill="none" stroke-width="2.5"/><path d="M713.24893,-33.15844l64.03434,-61.96871" fill="none" stroke-width="2.5"/></g></g></svg>