<svg version="1.1" xmlns="http://www.w3.org/2000/svg" xmlns:xlink="http://www.w3.org/1999/xlink" width="395.48259" height="279.95314" viewBox="0,0,395.48259,279.95314"><defs><linearGradient x1="590.303" y1="88.94607" x2="590.303" y2="162.3797" gradientUnits="userSpaceOnUse" id="color-1"><stop offset="0" stop-color="#959595"/><stop offset="1" stop-color="#959595"/></linearGradient><linearGradient x1="551.31168" y1="34.0333" x2="518.81892" y2="34.0333" gradientUnits="userSpaceOnUse" id="color-2"><stop offset="0" stop-color="#ffffff"/><stop offset="1" stop-color="#77aed3"/></linearGradient><linearGradient x1="609.79867" y1="22.98575" x2="567.55806" y2="22.98575" gradientUnits="userSpaceOnUse" id="color-3"><stop offset="0" stop-color="#ffffff"/><stop offset="1" stop-color="#77aed3"/></linearGradient></defs><g transform="translate(-465.06981,108.02137)"><g data-paper-data="{&quot;isPaintingLayer&quot;:true}" fill-rule="nonzero" stroke="#000000" stroke-linecap="round" stroke-linejoin="miter" stroke-miterlimit="10" stroke-dasharray="" stroke-dashoffset="0" style="mix-blend-mode: normal"><path d="M504.48144,16.0567l-37.04175,-5.8487l97.47828,-116.97394l210.5531,1.94957l81.88176,68.2348l-46.78958,15.59653z" data-paper-data="{&quot;index&quot;:null}" fill="#ff0000" stroke-width="2.5"/><path d="M504.75685,73.18715c0,0 0.53426,-53.20727 0.45056,-53.46748c-0.25105,-0.78063 0.38067,-9.56847 0.38067,-9.56847c0,0 115.27488,-39.38563 118.10399,-39.78633c0.94304,-0.13356 0.73128,-0.66716 0.73128,-0.66716l133.8177,3.25683l48.87731,-0.65739l-0.15852,89.36686l-0.13618,105.26479l-42.89045,1.94957l-138.98101,-0.64987l-120.69404,-29.56842l0.49874,-45.65232z" data-paper-data="{&quot;index&quot;:null}" fill="#ffffff" stroke-width="2.5"/><path d="M624.74531,-27.52408l-0.64985,198.20585v0" data-paper-data="{&quot;index&quot;:null}" fill="none" stroke-width="2.5"/><path d="M580.55517,155.88113l0.64985,-66.93508h18.84581v73.43365z" data-paper-data="{&quot;index&quot;:null}" fill="url(#color-1)" stroke-width="0.5"/><path d="M585.10415,124.6881v-3.89913" data-paper-data="{&quot;index&quot;:null}" fill="none" stroke-width="0.5"/><path d="M518.81892,65.55126l1.29972,-53.93799l31.19305,-9.74783v64.33567z" data-paper-data="{&quot;index&quot;:null}" fill="url(#color-2)" stroke-width="0.5"/><path d="M567.55806,-2.68354l42.2406,-16.24637v83.83133h-42.2406z" data-paper-data="{&quot;index&quot;:null}" fill="url(#color-3)" stroke-width="0.5"/><path d="M471.33882,12.15757l154.01569,-56.53741l233.94788,7.79826" data-paper-data="{&quot;index&quot;:null}" fill="none" stroke-width="2.5"/><path d="M627.30408,-44.37983l-60.43654,-58.48697" data-paper-data="{&quot;index&quot;:null}" fill="none" stroke-width="2.5"/></g></g></svg>