<svg version="1.1" xmlns="http://www.w3.org/2000/svg" xmlns:xlink="http://www.w3.org/1999/xlink" width="396.23679" height="294.10534" viewBox="0,0,396.23679,294.10534"><defs><linearGradient x1="601.72209" y1="101.75996" x2="601.72209" y2="196.50758" gradientUnits="userSpaceOnUse" id="color-1"><stop offset="0" stop-color="#959595"/><stop offset="1" stop-color="#959595"/></linearGradient><linearGradient x1="551.4136" y1="30.90879" x2="509.48987" y2="30.90879" gradientUnits="userSpaceOnUse" id="color-2"><stop offset="0" stop-color="#ffffff"/><stop offset="1" stop-color="#77aed3"/></linearGradient><linearGradient x1="626.87642" y1="16.65471" x2="572.37547" y2="16.65471" gradientUnits="userSpaceOnUse" id="color-3"><stop offset="0" stop-color="#ffffff"/><stop offset="1" stop-color="#77aed3"/></linearGradient></defs><g transform="translate(-489.44212,85.63602)"><g data-paper-data="{&quot;isPaintingLayer&quot;:true}" fill-rule="nonzero" stroke="#000000" stroke-linecap="round" stroke-linejoin="miter" stroke-miterlimit="10" stroke-dasharray="" stroke-dashoffset="0" style="mix-blend-mode: normal"><path d="M491.3463,81.42702c0,0 0.68933,-68.65062 0.58135,-68.98635c-0.3239,-1.00719 0.49116,-27.43827 0.49116,-27.43827c0,0 157.53728,-68.42526 161.18752,-68.94223c1.21675,-0.17233 -0.3142,0.3969 -0.3142,0.3969l231.11041,-0.83846l-3.13917,150.94066l-0.17571,135.81777l-55.33935,2.51542l-179.32011,-0.8385l-155.72532,-38.15062l0.64348,-58.90282z" data-paper-data="{&quot;index&quot;:null}" fill="#ffffff" stroke-width="2.5"/><path d="M646.16128,-76.18523l-0.83846,283.40455v0" data-paper-data="{&quot;index&quot;:null}" fill="none" stroke-width="2.5"/><path d="M589.14498,188.12281l0.83846,-86.36289h24.31579v94.74768z" data-paper-data="{&quot;index&quot;:null}" fill="url(#color-1)" stroke-width="0.5"/><path d="M595.0143,147.87609v-5.03086" data-paper-data="{&quot;index&quot;:null}" fill="none" stroke-width="0.5"/><path d="M509.48987,71.5748l1.67696,-69.59342l40.2468,-12.57715v83.00903z" data-paper-data="{&quot;index&quot;:null}" fill="url(#color-2)" stroke-width="0.5"/><path d="M572.37547,-16.46505l54.50087,-20.96189v108.16329h-54.50087z" data-paper-data="{&quot;index&quot;:null}" fill="url(#color-3)" stroke-width="0.5"/></g></g></svg>