<svg version="1.1" xmlns="http://www.w3.org/2000/svg" xmlns:xlink="http://www.w3.org/1999/xlink" width="305.56894" height="241.92851" viewBox="0,0,305.56894,241.92851"><defs><linearGradient x1="574.32968" y1="87.02172" x2="574.32968" y2="158.13728" gradientUnits="userSpaceOnUse" id="color-1"><stop offset="0" stop-color="#959595"/><stop offset="1" stop-color="#959595"/></linearGradient><linearGradient x1="536.5692" y1="33.84237" x2="505.10213" y2="33.84237" gradientUnits="userSpaceOnUse" id="color-2"><stop offset="0" stop-color="#ffffff"/><stop offset="1" stop-color="#77aed3"/></linearGradient><linearGradient x1="593.20994" y1="23.14356" x2="552.30273" y2="23.14356" gradientUnits="userSpaceOnUse" id="color-3"><stop offset="0" stop-color="#ffffff"/><stop offset="1" stop-color="#77aed3"/></linearGradient></defs><g transform="translate(-486.19119,74.50122)"><g data-paper-data="{&quot;isPaintingLayer&quot;:true}" fill-rule="nonzero" stroke="#000000" stroke-linejoin="miter" stroke-miterlimit="10" stroke-dasharray="" stroke-dashoffset="0" style="mix-blend-mode: normal"><path d="M491.48396,71.76028c0,0 0.51739,-51.52769 0.43634,-51.77968c-0.24312,-0.75598 0.36866,-20.59457 0.36866,-20.59457c0,0 118.2441,-51.35852 120.9839,-51.74657c0.91327,-0.12935 -0.23581,0.29791 -0.23581,0.29791l173.46651,-0.62934l-2.3562,113.29283l-0.13188,101.94191l-41.53653,1.88802l-134.59382,-0.62935l-116.88411,-28.63504l0.48299,-44.21122z" data-paper-data="{&quot;index&quot;:null}" fill="#e0e0e0" stroke-width="2.5" stroke-linecap="round"/><path d="M607.68476,-46.5401l-0.62934,212.71738v0" data-paper-data="{&quot;index&quot;:null}" fill="none" stroke-width="2.5" stroke-linecap="round"/><path d="M564.88956,151.84386l0.62934,-64.82215h18.25091v71.11558z" data-paper-data="{&quot;index&quot;:null}" fill="url(#color-1)" stroke-width="0.5" stroke-linecap="round"/><path d="M569.29494,121.63549v-3.77605" data-paper-data="{&quot;index&quot;:null}" fill="none" stroke-width="0.5" stroke-linecap="round"/><path d="M505.10213,64.36541l1.25869,-52.23534l30.20838,-9.44012v62.30479z" data-paper-data="{&quot;index&quot;:null}" fill="url(#color-2)" stroke-width="0.5" stroke-linecap="round"/><path d="M552.30273,-1.71543l40.90719,-15.73353v81.18503h-40.90719z" data-paper-data="{&quot;index&quot;:null}" fill="url(#color-3)" stroke-width="0.5" stroke-linecap="round"/><path d="M606.38671,-43.98353l0.47201,-28.79237l183.61034,-0.47201l-0.94401,29.26437z" data-paper-data="{&quot;index&quot;:null}" fill="#4300ff" stroke-width="2.5" stroke-linecap="butt"/><path d="M487.44119,6.99312v-18.88024l118.94552,-60.41677v30.20838z" data-paper-data="{&quot;index&quot;:null}" fill="#4300ff" stroke-width="2.5" stroke-linecap="butt"/></g></g></svg>