<svg version="1.1" xmlns="http://www.w3.org/2000/svg" xmlns:xlink="http://www.w3.org/1999/xlink" width="3.10794" height="20.40844" viewBox="0,0,3.10794,20.40844"><g transform="translate(-225.07204,-159.38273)"><g data-paper-data="{&quot;isPaintingLayer&quot;:true}" fill-rule="nonzero" stroke="none" stroke-linecap="butt" stroke-linejoin="miter" stroke-miterlimit="10" stroke-dasharray="" stroke-dashoffset="0" style="mix-blend-mode: normal"><path d="M226.35809,179.79116v-13.54954h0.6966v13.54954z" fill="#a9a9a9" stroke-width="0"/><path d="M228.17998,160.9635c0,0.87303 -0.69574,1.58077 -1.55397,1.58077c-0.85824,0 -1.55397,-0.70773 -1.55397,-1.58077c0,-0.87303 0.69574,-1.58077 1.55397,-1.58077c0.85824,0 1.55397,0.70773 1.55397,1.58077z" fill="#000000" stroke-width="NaN"/><path d="M228.17998,164.76803c0,0.87303 -0.69574,1.58077 -1.55397,1.58077c-0.85824,0 -1.55397,-0.70773 -1.55397,-1.58077c0,-0.87303 0.69574,-1.58077 1.55397,-1.58077c0.85824,0 1.55397,0.70773 1.55397,1.58077z" fill="#000000" stroke-width="NaN"/><path d="M225.07204,164.84841v-3.85813h3.10794v3.85813z" fill="#000000" stroke-width="0"/></g></g></svg>