<svg version="1.1" xmlns="http://www.w3.org/2000/svg" xmlns:xlink="http://www.w3.org/1999/xlink" width="283.19018" height="280.72499" viewBox="0,0,283.19018,280.72499"><g transform="translate(-477.74097,121.51442)"><g data-paper-data="{&quot;isPaintingLayer&quot;:true}" fill-rule="nonzero" stroke-width="2.5" stroke-linejoin="miter" stroke-miterlimit="10" stroke-dasharray="" stroke-dashoffset="0" style="mix-blend-mode: normal"><path d="M613.85382,-120.26442c35.7275,0 64.69032,19.60703 64.69032,43.79354c0,24.18651 -28.96286,43.79354 -64.69032,43.79354c-35.7275,0 -64.69032,-19.60703 -64.69032,-43.79354c0,-24.18651 28.96286,-43.79354 64.69032,-43.79354z" data-paper-data="{&quot;index&quot;:null}" fill="#6bba32" stroke="#63ad2f" stroke-linecap="butt"/><path d="M613.85382,7.98809c35.7275,0 64.69032,19.60703 64.69032,43.79354c0,24.18651 -28.96286,43.79354 -64.69032,43.79354c-35.7275,0 -64.69032,-19.60703 -64.69032,-43.79354c0,-24.18651 28.96286,-43.79354 64.69032,-43.79354z" data-paper-data="{&quot;index&quot;:null}" fill="#6bba32" stroke="#63ad2f" stroke-linecap="butt"/><path d="M583.15334,-101.49576c35.7275,0 64.69032,19.60703 64.69032,43.79354c0,24.18651 -28.96286,43.79354 -64.69032,43.79354c-35.7275,0 -64.69032,-19.60703 -64.69032,-43.79354c0,-24.18651 28.96286,-43.79354 64.69032,-43.79354z" data-paper-data="{&quot;index&quot;:null}" fill="#6bba32" stroke="#63ad2f" stroke-linecap="butt"/><path d="M678.54413,-65.52249c36.33305,0 65.78677,19.60703 65.78677,43.79354c0,24.18651 -29.45376,43.79354 -65.78677,43.79354c-36.33305,0 -65.78677,-19.60703 -65.78677,-43.79354c0,-24.18651 29.45376,-43.79354 65.78677,-43.79354z" data-paper-data="{&quot;index&quot;:null}" fill="#6bba32" stroke="#63ad2f" stroke-linecap="butt"/><path d="M543.68129,-54.57412c35.7275,0 64.69032,19.60703 64.69032,43.79354c0,24.18651 -28.96286,43.79354 -64.69032,43.79354c-35.7275,0 -64.69032,-19.60703 -64.69032,-43.79354c0,-24.18651 28.96286,-43.79354 64.69032,-43.79354z" data-paper-data="{&quot;index&quot;:null}" fill="#6bba32" stroke="#63ad2f" stroke-linecap="butt"/><path d="M554.64575,-6.0884c35.7275,0 64.69032,19.60703 64.69032,43.79354c0,24.18651 -28.96286,43.79354 -64.69032,43.79354c-35.7275,0 -64.69032,-19.60703 -64.69032,-43.79354c0,-24.18651 28.96286,-43.79354 64.69032,-43.79354z" data-paper-data="{&quot;index&quot;:null}" fill="#6bba32" stroke="#63ad2f" stroke-linecap="butt"/><path d="M629.20406,-31.11328c35.7275,0 64.69032,19.60703 64.69032,43.79354c0,24.18651 -28.96286,43.79354 -64.69032,43.79354c-35.7275,0 -64.69032,-19.60703 -64.69032,-43.79354c0,-24.18651 28.96286,-43.79354 64.69032,-43.79354z" data-paper-data="{&quot;index&quot;:null}" fill="#6bba32" stroke="#63ad2f" stroke-linecap="butt"/><path d="M694.99083,-13.90868c35.7275,0 64.69032,19.60703 64.69032,43.79354c0,24.18651 -28.96286,43.79354 -64.69032,43.79354c-35.7275,0 -64.69032,-19.60703 -64.69032,-43.79354c0,-24.18651 28.96286,-43.79354 64.69032,-43.79354z" data-paper-data="{&quot;index&quot;:null}" fill="#6bba32" stroke="#63ad2f" stroke-linecap="butt"/><path d="M529.42748,33.01298l98.68012,12.51245l21.92892,-35.97327l-2.19289,42.22948l81.13699,-32.84515l-77.81333,41.51098l-2.19289,42.22948l5.4479,22.61529l8.77157,15.64055l32.89337,15.64055l-48.24362,-7.82027l-10.96446,-7.82027l-6.57866,14.07649l-17.54315,-1.56406l4.42009,-10.88487l-14.2538,6.25621l-23.02536,1.56406l24.12181,-15.64055l5.48225,-28.93502l-3.28934,-49.26773z" data-paper-data="{&quot;index&quot;:null}" fill="#ba7d33" stroke="#7b4c23" stroke-linecap="round"/><path d="M651.13298,-98.36766c35.7275,0 64.69032,19.60703 64.69032,43.79354c0,24.18651 -28.96286,43.79354 -64.69032,43.79354c-35.7275,0 -64.69032,-19.60703 -64.69032,-43.79354c0,-24.18651 28.96286,-43.79354 64.69032,-43.79354z" data-paper-data="{&quot;index&quot;:null}" fill="#6bba32" stroke="#63ad2f" stroke-linecap="butt"/></g></g></svg>