<svg version="1.1" xmlns="http://www.w3.org/2000/svg" xmlns:xlink="http://www.w3.org/1999/xlink" width="152.55955" height="151.88724"><g transform="translate(13.25002,-61.66876)"><g data-paper-data="{&quot;isPaintingLayer&quot;:true}" fill="none" fill-rule="nonzero" stroke="none" stroke-width="2.5" stroke-linecap="none" stroke-linejoin="miter" stroke-miterlimit="10" stroke-dasharray="" stroke-dashoffset="0" font-family="none" font-weight="none" font-size="none" text-anchor="none" style="mix-blend-mode: normal"><path d="M100.54465,86.33119c0,12.93033 -15.48379,23.41243 -34.58404,23.41243c-19.10023,0 -34.58404,-10.4821 -34.58404,-23.41243c0,-12.93033 15.48379,-23.41243 34.58404,-23.41243c19.10023,0 34.58404,10.4821 34.58404,23.41243z" data-paper-data="{&quot;origPos&quot;:null}" fill="#6bba32" stroke="#63ad2f" stroke-linecap="butt"/><path d="M100.54465,154.89616c0,12.93033 -15.48379,23.41243 -34.58404,23.41243c-19.10023,0 -34.58404,-10.4821 -34.58404,-23.41243c0,-12.93033 15.48379,-23.41243 34.58404,-23.41243c19.10023,0 34.58404,10.4821 34.58404,23.41243z" data-paper-data="{&quot;origPos&quot;:null}" fill="#6bba32" stroke="#63ad2f" stroke-linecap="butt"/><path d="M116.95741,96.36509c0,12.93033 -15.48379,23.41243 -34.58404,23.41243c-19.10023,0 -34.58404,-10.4821 -34.58404,-23.41243c0,-12.93033 15.48379,-23.41243 34.58404,-23.41243c19.10023,0 34.58404,10.4821 34.58404,23.41243z" data-paper-data="{&quot;origPos&quot;:null}" fill="#6bba32" stroke="#63ad2f" stroke-linecap="butt"/><path d="M66.54679,115.59673c0,12.93033 -15.74623,23.41243 -35.17021,23.41243c-19.42396,0 -35.17021,-10.4821 -35.17021,-23.41243c0,-12.93033 15.74623,-23.41243 35.17021,-23.41243c19.42396,0 35.17021,10.4821 35.17021,23.41243z" data-paper-data="{&quot;origPos&quot;:null}" fill="#6bba32" stroke="#63ad2f" stroke-linecap="butt"/><path d="M138.05953,121.44983c0,12.93033 -15.48379,23.41243 -34.58404,23.41243c-19.10023,0 -34.58404,-10.4821 -34.58404,-23.41243c0,-12.93033 15.48379,-23.41243 34.58404,-23.41243c19.10023,0 34.58404,10.4821 34.58404,23.41243z" data-paper-data="{&quot;origPos&quot;:null}" fill="#6bba32" stroke="#63ad2f" stroke-linecap="butt"/><path d="M132.19783,147.37074c0,12.93033 -15.48379,23.41243 -34.58404,23.41243c-19.10023,0 -34.58404,-10.4821 -34.58404,-23.41243c0,-12.93033 15.48379,-23.41243 34.58404,-23.41243c19.10023,0 34.58404,10.4821 34.58404,23.41243z" data-paper-data="{&quot;origPos&quot;:null}" fill="#6bba32" stroke="#63ad2f" stroke-linecap="butt"/><path d="M92.33827,133.99221c0,12.93033 -15.48379,23.41243 -34.58404,23.41243c-19.10023,0 -34.58404,-10.4821 -34.58404,-23.41243c0,-12.93033 15.48379,-23.41243 34.58404,-23.41243c19.10023,0 34.58404,10.4821 34.58404,23.41243z" data-paper-data="{&quot;origPos&quot;:null}" fill="#6bba32" stroke="#63ad2f" stroke-linecap="butt"/><path d="M57.16806,143.18995c0,12.93033 -15.48379,23.41243 -34.58404,23.41243c-19.10023,0 -34.58404,-10.4821 -34.58404,-23.41243c0,-12.93033 15.48379,-23.41243 34.58404,-23.41243c19.10023,0 34.58404,10.4821 34.58404,23.41243z" data-paper-data="{&quot;origPos&quot;:null}" fill="#6bba32" stroke="#63ad2f" stroke-linecap="butt"/><path d="M70.04546,157.4386l-1.75851,26.33898l2.93086,15.46893l12.89574,8.36158l-12.30957,-0.83616l-7.62021,-3.34463l2.36302,5.81915l-9.37873,0.83616l-3.51701,-7.52542l-5.8617,4.18079l-25.79148,4.18079l17.5851,-8.36158l4.68936,-8.36158l2.9125,-12.09034l-1.17234,-22.57627l-41.59972,-22.19215l43.37658,17.55932l-1.17234,-22.57627l11.7234,19.23164l52.7553,-6.68927z" data-paper-data="{&quot;origPos&quot;:null}" fill="#ba7d33" stroke="#7b4c23" stroke-linecap="round"/><path d="M80.61487,98.0374c0,12.93033 -15.48379,23.41243 -34.58404,23.41243c-19.10023,0 -34.58404,-10.4821 -34.58404,-23.41243c0,-12.93033 15.48379,-23.41243 34.58404,-23.41243c19.10023,0 34.58404,10.4821 34.58404,23.41243z" data-paper-data="{&quot;origPos&quot;:null}" fill="#6bba32" stroke="#63ad2f" stroke-linecap="butt"/></g></g></svg>