<svg version="1.1" xmlns="http://www.w3.org/2000/svg" xmlns:xlink="http://www.w3.org/1999/xlink" width="3.10794" height="20.40843" viewBox="0,0,3.10794,20.40843"><defs><radialGradient cx="226.57328" cy="161.25399" r="0.6162" gradientUnits="userSpaceOnUse" id="color-1"><stop offset="0" stop-color="#3fa9f5"/><stop offset="1" stop-color="#5bbbff"/></radialGradient></defs><g transform="translate(-225.07204,-159.38273)"><g data-paper-data="{&quot;isPaintingLayer&quot;:true}" fill-rule="nonzero" stroke="none" stroke-linecap="butt" stroke-linejoin="miter" stroke-miterlimit="10" stroke-dasharray="" stroke-dashoffset="0" style="mix-blend-mode: normal"><path d="M226.35809,179.79116v-13.54954h0.6966v13.54954z" fill="#a9a9a9" stroke-width="0"/><path d="M228.17998,160.9635c0,0.87303 -0.69574,1.58077 -1.55397,1.58077c-0.85824,0 -1.55397,-0.70773 -1.55397,-1.58077c0,-0.87303 0.69574,-1.58077 1.55397,-1.58077c0.85824,0 1.55397,0.70773 1.55397,1.58077z" fill="#000000" stroke-width="NaN"/><path d="M228.17998,164.76803c0,0.87303 -0.69574,1.58077 -1.55397,1.58077c-0.85824,0 -1.55397,-0.70773 -1.55397,-1.58077c0,-0.87303 0.69574,-1.58077 1.55397,-1.58077c0.85824,0 1.55397,0.70773 1.55397,1.58077z" fill="#000000" stroke-width="NaN"/><path d="M225.07204,164.84841v-3.85813h3.10794v3.85813z" fill="#000000" stroke-width="0"/><path d="M227.17348,161.25399c0,0.34032 -0.26872,0.6162 -0.6002,0.6162c-0.33148,0 -0.6002,-0.27588 -0.6002,-0.6162c0,-0.34032 0.26872,-0.6162 0.6002,-0.6162c0.33148,0 0.6002,0.27588 0.6002,0.6162z" fill="url(#color-1)" stroke-width="0"/><path d="M227.21953,162.91382c0,0.34032 -0.26872,0.6162 -0.6002,0.6162c-0.33148,0 -0.6002,-0.27588 -0.6002,-0.6162c0,-0.34032 0.26872,-0.6162 0.6002,-0.6162c0.33148,0 0.6002,0.27588 0.6002,0.6162z" fill="#4d4d4d" stroke-width="0"/><path d="M227.22805,164.53613c0,0.34032 -0.26872,0.6162 -0.6002,0.6162c-0.33148,0 -0.6002,-0.27588 -0.6002,-0.6162c0,-0.34032 0.26872,-0.6162 0.6002,-0.6162c0.33148,0 0.6002,0.27588 0.6002,0.6162z" fill="#4d4d4d" stroke-width="0"/></g></g></svg>