<svg version="1.1" xmlns="http://www.w3.org/2000/svg" xmlns:xlink="http://www.w3.org/1999/xlink" width="159.0513" height="118.42967" viewBox="0,0,159.0513,118.42967"><defs><linearGradient x1="89.01042" y1="177.30625" x2="89.01042" y2="214.97291" gradientUnits="userSpaceOnUse" id="color-1"><stop offset="0" stop-color="#959595"/><stop offset="1" stop-color="#959595"/></linearGradient><linearGradient x1="109.01042" y1="149.13958" x2="125.67709" y2="149.13958" gradientUnits="userSpaceOnUse" id="color-2"><stop offset="0" stop-color="#ffffff"/><stop offset="1" stop-color="#77aed3"/></linearGradient><linearGradient x1="79.01041" y1="143.47291" x2="100.67709" y2="143.47291" gradientUnits="userSpaceOnUse" id="color-3"><stop offset="0" stop-color="#ffffff"/><stop offset="1" stop-color="#77aed3"/></linearGradient></defs><g transform="translate(24.64474,-102.05166)"><g data-paper-data="{&quot;isPaintingLayer&quot;:true}" fill-rule="nonzero" stroke="#000000" stroke-linecap="round" stroke-linejoin="miter" stroke-miterlimit="10" stroke-dasharray="" stroke-dashoffset="0" style="mix-blend-mode: normal"><path d="M132.88998,179.38963l0.25582,23.41666l-61.90817,15.16667l-71.28819,0.33334l-22,-1l-0.06985,-53.99397l-1.24797,-60.00603l91.87728,0.33333c0,0 -0.60862,-0.2263 -0.1249,-0.15779c1.45115,0.20553 64.07964,27.40779 64.07964,27.40779c0,0 0.32403,10.50759 0.19526,10.908c-0.04293,0.13347 0.23111,27.42533 0.23111,27.42533z" data-paper-data="{&quot;origPos&quot;:null}" fill="#ffffff" stroke-width="2.5"/><path d="M71.34376,106.56466l0.33333,112.66667v0" data-paper-data="{&quot;origPos&quot;:null}" fill="none" stroke-width="2.5"/><path d="M84.01042,214.97291v-37.66667h9.66667l0.33333,34.33333z" fill="url(#color-1)" stroke-width="0.5"/><path d="M91.67709,195.63958v-2" fill="none" stroke-width="0.5"/><path d="M109.01042,165.63957v-33l16,5l0.66667,27.66667z" fill="url(#color-2)" stroke-width="0.5"/><path d="M100.67709,164.97291h-21.66667v-43l21.66667,8.33333z" fill="url(#color-3)" stroke-width="0.5"/></g></g></svg>