<svg version="1.1" xmlns="http://www.w3.org/2000/svg" xmlns:xlink="http://www.w3.org/1999/xlink" width="163.04108" height="129.5995" viewBox="0,0,163.04108,129.5995"><defs><linearGradient x1="82.01042" y1="178.30625" x2="82.01042" y2="215.97291" gradientUnits="userSpaceOnUse" id="color-1"><stop offset="0" stop-color="#959595"/><stop offset="1" stop-color="#959595"/></linearGradient><linearGradient x1="102.01042" y1="150.13958" x2="118.67709" y2="150.13958" gradientUnits="userSpaceOnUse" id="color-2"><stop offset="0" stop-color="#ffffff"/><stop offset="1" stop-color="#77aed3"/></linearGradient><linearGradient x1="72.01041" y1="144.47291" x2="93.67709" y2="144.47291" gradientUnits="userSpaceOnUse" id="color-3"><stop offset="0" stop-color="#ffffff"/><stop offset="1" stop-color="#77aed3"/></linearGradient></defs><g transform="translate(33.7598,-91.88183)"><g data-paper-data="{&quot;isPaintingLayer&quot;:true}" fill="none" fill-rule="nonzero" stroke="#000000" stroke-width="none" stroke-linecap="none" stroke-linejoin="miter" stroke-miterlimit="10" stroke-dasharray="" stroke-dashoffset="0" font-family="none" font-weight="none" font-size="none" text-anchor="none" style="mix-blend-mode: normal"><path d="M125.88998,180.38963l0.25582,23.41666l-61.90817,15.16667l-71.28819,0.33334l-22,-1l-0.06985,-53.99397l-1.24797,-60.00603l91.87728,0.33333c0,0 -0.60862,-0.2263 -0.1249,-0.15779c1.45115,0.20553 64.07964,27.40779 64.07964,27.40779c0,0 0.32403,10.50759 0.19526,10.908c-0.04293,0.13347 0.23111,27.42533 0.23111,27.42533z" data-paper-data="{&quot;origPos&quot;:null}" fill="#ffffff" stroke-width="2.5" stroke-linecap="round"/><path d="M64.34376,107.56466l0.33333,112.66667v0" data-paper-data="{&quot;origPos&quot;:null}" fill="none" stroke-width="2.5" stroke-linecap="round"/><path d="M77.01042,215.97291v-37.66667h9.66667l0.33333,34.33333z" data-paper-data="{&quot;origPos&quot;:null}" fill="url(#color-1)" stroke-width="0.5" stroke-linecap="round"/><path d="M84.67709,196.63958v-2" data-paper-data="{&quot;origPos&quot;:null}" fill="none" stroke-width="0.5" stroke-linecap="round"/><path d="M102.01042,166.63957v-33l16,5l0.66667,27.66667z" data-paper-data="{&quot;origPos&quot;:null}" fill="url(#color-2)" stroke-width="0.5" stroke-linecap="round"/><path d="M93.67709,165.97291h-21.66667v-43l21.66667,8.33333z" data-paper-data="{&quot;origPos&quot;:null}" fill="url(#color-3)" stroke-width="0.5" stroke-linecap="round"/><path d="M-31.96872,108.91876l-0.5,-15.5l97.25,0.25l0.25,15.25z" data-paper-data="{&quot;origPos&quot;:null}" fill="#ff0000" stroke-width="2.5" stroke-linecap="butt"/><path d="M65.03128,109.91876v-16l63,32v10z" data-paper-data="{&quot;origPos&quot;:null}" fill="#ff0000" stroke-width="2.5" stroke-linecap="butt"/></g></g></svg>