<svg version="1.1" xmlns="http://www.w3.org/2000/svg" xmlns:xlink="http://www.w3.org/1999/xlink" width="204.89395" height="144.818" viewBox="0,0,204.89395,144.818"><defs><linearGradient x1="87.01042" y1="178.30625" x2="87.01042" y2="215.97291" gradientUnits="userSpaceOnUse" id="color-1"><stop offset="0" stop-color="#959595"/><stop offset="1" stop-color="#959595"/></linearGradient><linearGradient x1="107.01042" y1="150.13958" x2="123.67709" y2="150.13958" gradientUnits="userSpaceOnUse" id="color-2"><stop offset="0" stop-color="#ffffff"/><stop offset="1" stop-color="#77aed3"/></linearGradient><linearGradient x1="77.01041" y1="144.47291" x2="98.67709" y2="144.47291" gradientUnits="userSpaceOnUse" id="color-3"><stop offset="0" stop-color="#ffffff"/><stop offset="1" stop-color="#77aed3"/></linearGradient></defs><g transform="translate(52.49279,-76.66332)"><g data-paper-data="{&quot;isPaintingLayer&quot;:true}" fill="none" fill-rule="nonzero" stroke="#000000" stroke-width="none" stroke-linecap="round" stroke-linejoin="miter" stroke-miterlimit="10" stroke-dasharray="" stroke-dashoffset="0" font-family="none" font-weight="none" font-size="none" text-anchor="none" style="mix-blend-mode: normal"><path d="M-25.96872,121.91876l-24,-8l42,-35l108,-1l50,60l-19,3z" data-paper-data="{&quot;origPos&quot;:null}" fill="#1a00ff" stroke-width="2.5"/><path d="M130.88998,180.38963l0.25582,23.41666l-61.90817,15.16667l-71.28819,0.33334l-22,-1l-0.06985,-53.99397l-0.08131,-45.83937l25.07087,0.3372l68.63975,-1.67054c0,0 -0.10862,0.2737 0.3751,0.34221c1.45115,0.20553 60.57964,20.40779 60.57964,20.40779c0,0 0.32403,4.50759 0.19526,4.908c-0.04293,0.13347 0.23111,27.42533 0.23111,27.42533z" data-paper-data="{&quot;origPos&quot;:null}" fill="#ffffff" stroke-width="2.5"/><path d="M69.34376,118.56466l0.33333,101.66667v0" data-paper-data="{&quot;origPos&quot;:null}" fill="none" stroke-width="2.5"/><path d="M82.01042,215.97291v-37.66667h9.66667l0.33333,34.33333z" data-paper-data="{&quot;origPos&quot;:null}" fill="url(#color-1)" stroke-width="0.5"/><path d="M89.67709,196.63958v-2" data-paper-data="{&quot;origPos&quot;:null}" fill="none" stroke-width="0.5"/><path d="M107.01042,166.63957v-33l16,5l0.66667,27.66667z" data-paper-data="{&quot;origPos&quot;:null}" fill="url(#color-2)" stroke-width="0.5"/><path d="M98.67709,165.97291h-21.66667v-43l21.66667,8.33333z" data-paper-data="{&quot;origPos&quot;:null}" fill="url(#color-3)" stroke-width="0.5"/><path d="M-50.96872,113.91876l120,-4l79,29" data-paper-data="{&quot;origPos&quot;:null}" fill="none" stroke-width="2.5"/><path d="M68.03128,109.91876l31,-30" data-paper-data="{&quot;origPos&quot;:null}" fill="none" stroke-width="2.5"/></g></g></svg>